
<svg width="101" height="130" viewBox="0 0 101 130" fill="none" xmlns="http://www.w3.org/2000/svg">
<path d="M28.1041 39.276L26.5291 35.195C26.4824 35.0737 26.4334 34.9337 26.3821 34.775C26.3308 34.6117 26.2818 34.439 26.2351 34.257C26.1371 34.635 26.0368 34.95 25.9341 35.202L24.3591 39.276H28.1041ZM30.9321 43H29.8821C29.7608 43 29.6628 42.9697 29.5881 42.909C29.5134 42.8483 29.4574 42.7713 29.4201 42.678L28.4821 40.256H23.9811L23.0431 42.678C23.0151 42.762 22.9614 42.8367 22.8821 42.902C22.8028 42.9673 22.7048 43 22.5881 43H21.5381L25.5491 32.969H26.9211L30.9321 43ZM36.7013 37.169C36.664 37.2203 36.6266 37.26 36.5893 37.288C36.552 37.316 36.5006 37.33 36.4353 37.33C36.3653 37.33 36.2883 37.302 36.2043 37.246C36.1203 37.1853 36.0153 37.12 35.8893 37.05C35.768 36.98 35.6163 36.917 35.4343 36.861C35.257 36.8003 35.0376 36.77 34.7763 36.77C34.4263 36.77 34.1183 36.833 33.8523 36.959C33.5863 37.0803 33.3623 37.2577 33.1803 37.491C33.003 37.7243 32.8676 38.0067 32.7743 38.338C32.6856 38.6693 32.6413 39.0403 32.6413 39.451C32.6413 39.8803 32.6903 40.263 32.7883 40.599C32.8863 40.9303 33.024 41.2103 33.2013 41.439C33.3833 41.663 33.6003 41.8357 33.8523 41.957C34.109 42.0737 34.396 42.132 34.7133 42.132C35.0166 42.132 35.2663 42.097 35.4623 42.027C35.6583 41.9523 35.8193 41.8707 35.9453 41.782C36.076 41.6933 36.1833 41.614 36.2673 41.544C36.356 41.4693 36.4423 41.432 36.5263 41.432C36.629 41.432 36.7083 41.4717 36.7643 41.551L37.1143 42.006C36.9603 42.1973 36.7853 42.3607 36.5893 42.496C36.3933 42.6313 36.181 42.7457 35.9523 42.839C35.7283 42.9277 35.4926 42.993 35.2453 43.035C34.998 43.077 34.746 43.098 34.4893 43.098C34.046 43.098 33.633 43.0163 33.2503 42.853C32.8723 42.6897 32.5433 42.454 32.2633 42.146C31.9833 41.8333 31.764 41.4507 31.6053 40.998C31.4466 40.5453 31.3673 40.0297 31.3673 39.451C31.3673 38.9237 31.4396 38.436 31.5843 37.988C31.7336 37.54 31.9483 37.155 32.2283 36.833C32.513 36.5063 32.8606 36.252 33.2713 36.07C33.6866 35.888 34.1626 35.797 34.6993 35.797C35.1986 35.797 35.6373 35.8787 36.0153 36.042C36.398 36.2007 36.7363 36.427 37.0303 36.721L36.7013 37.169ZM43.2638 37.169C43.2265 37.2203 43.1891 37.26 43.1518 37.288C43.1145 37.316 43.0631 37.33 42.9978 37.33C42.9278 37.33 42.8508 37.302 42.7668 37.246C42.6828 37.1853 42.5778 37.12 42.4518 37.05C42.3305 36.98 42.1788 36.917 41.9968 36.861C41.8195 36.8003 41.6001 36.77 41.3388 36.77C40.9888 36.77 40.6808 36.833 40.4148 36.959C40.1488 37.0803 39.9248 37.2577 39.7428 37.491C39.5655 37.7243 39.4301 38.0067 39.3368 38.338C39.2481 38.6693 39.2038 39.0403 39.2038 39.451C39.2038 39.8803 39.2528 40.263 39.3508 40.599C39.4488 40.9303 39.5865 41.2103 39.7638 41.439C39.9458 41.663 40.1628 41.8357 40.4148 41.957C40.6715 42.0737 40.9585 42.132 41.2758 42.132C41.5791 42.132 41.8288 42.097 42.0248 42.027C42.2208 41.9523 42.3818 41.8707 42.5078 41.782C42.6385 41.6933 42.7458 41.614 42.8298 41.544C42.9185 41.4693 43.0048 41.432 43.0888 41.432C43.1915 41.432 43.2708 41.4717 43.3268 41.551L43.6768 42.006C43.5228 42.1973 43.3478 42.3607 43.1518 42.496C42.9558 42.6313 42.7435 42.7457 42.5148 42.839C42.2908 42.9277 42.0551 42.993 41.8078 43.035C41.5605 43.077 41.3085 43.098 41.0518 43.098C40.6085 43.098 40.1955 43.0163 39.8128 42.853C39.4348 42.6897 39.1058 42.454 38.8258 42.146C38.5458 41.8333 38.3265 41.4507 38.1678 40.998C38.0091 40.5453 37.9298 40.0297 37.9298 39.451C37.9298 38.9237 38.0021 38.436 38.1468 37.988C38.2961 37.54 38.5108 37.155 38.7908 36.833C39.0755 36.5063 39.4231 36.252 39.8338 36.07C40.2491 35.888 40.7251 35.797 41.2618 35.797C41.7611 35.797 42.1998 35.8787 42.5778 36.042C42.9605 36.2007 43.2988 36.427 43.5928 36.721L43.2638 37.169ZM49.6373 38.681C49.6373 38.3917 49.5953 38.128 49.5113 37.89C49.432 37.6473 49.313 37.4397 49.1543 37.267C49.0003 37.0897 48.8113 36.9543 48.5873 36.861C48.3633 36.763 48.109 36.714 47.8243 36.714C47.227 36.714 46.7533 36.889 46.4033 37.239C46.058 37.5843 45.8433 38.065 45.7593 38.681H49.6373ZM50.6453 42.006C50.4913 42.1927 50.307 42.356 50.0923 42.496C49.8776 42.6313 49.6466 42.7433 49.3993 42.832C49.1566 42.9207 48.9046 42.986 48.6433 43.028C48.382 43.0747 48.123 43.098 47.8663 43.098C47.3763 43.098 46.9236 43.0163 46.5083 42.853C46.0976 42.685 45.7406 42.4423 45.4373 42.125C45.1386 41.803 44.9053 41.4063 44.7373 40.935C44.5693 40.4637 44.4853 39.9223 44.4853 39.311C44.4853 38.8163 44.56 38.3543 44.7093 37.925C44.8633 37.4957 45.0826 37.1247 45.3673 36.812C45.652 36.4947 45.9996 36.2473 46.4103 36.07C46.821 35.888 47.283 35.797 47.7963 35.797C48.221 35.797 48.613 35.8693 48.9723 36.014C49.3363 36.154 49.649 36.3593 49.9103 36.63C50.1763 36.896 50.384 37.2273 50.5333 37.624C50.6826 38.016 50.7573 38.464 50.7573 38.968C50.7573 39.164 50.7363 39.2947 50.6943 39.36C50.6523 39.4253 50.573 39.458 50.4563 39.458H45.7173C45.7313 39.906 45.792 40.2957 45.8993 40.627C46.0113 40.9583 46.1653 41.236 46.3613 41.46C46.5573 41.6793 46.7906 41.845 47.0613 41.957C47.332 42.0643 47.6353 42.118 47.9713 42.118C48.284 42.118 48.5523 42.083 48.7763 42.013C49.005 41.9383 49.201 41.859 49.3643 41.775C49.5276 41.691 49.663 41.614 49.7703 41.544C49.8823 41.4693 49.978 41.432 50.0573 41.432C50.16 41.432 50.2393 41.4717 50.2953 41.551L50.6453 42.006ZM56.4178 37.078C56.3618 37.1807 56.2754 37.232 56.1588 37.232C56.0888 37.232 56.0094 37.2063 55.9208 37.155C55.8321 37.1037 55.7224 37.0477 55.5918 36.987C55.4658 36.9217 55.3141 36.8633 55.1368 36.812C54.9594 36.756 54.7494 36.728 54.5068 36.728C54.2968 36.728 54.1078 36.756 53.9398 36.812C53.7718 36.8633 53.6271 36.9357 53.5058 37.029C53.3891 37.1223 53.2981 37.232 53.2328 37.358C53.1721 37.4793 53.1418 37.6123 53.1418 37.757C53.1418 37.939 53.1931 38.0907 53.2958 38.212C53.4031 38.3333 53.5431 38.4383 53.7158 38.527C53.8884 38.6157 54.0844 38.695 54.3038 38.765C54.5231 38.8303 54.7471 38.9027 54.9758 38.982C55.2091 39.0567 55.4354 39.1407 55.6548 39.234C55.8741 39.3273 56.0701 39.444 56.2428 39.584C56.4154 39.724 56.5531 39.8967 56.6558 40.102C56.7631 40.3027 56.8168 40.5453 56.8168 40.83C56.8168 41.1567 56.7584 41.46 56.6418 41.74C56.5251 42.0153 56.3524 42.2557 56.1238 42.461C55.8951 42.6617 55.6151 42.8203 55.2838 42.937C54.9524 43.0537 54.5698 43.112 54.1358 43.112C53.6411 43.112 53.1931 43.0327 52.7918 42.874C52.3904 42.7107 52.0498 42.503 51.7698 42.251L52.0638 41.775C52.1011 41.7143 52.1454 41.6677 52.1968 41.635C52.2481 41.6023 52.3134 41.586 52.3928 41.586C52.4768 41.586 52.5654 41.6187 52.6588 41.684C52.7521 41.7493 52.8641 41.8217 52.9948 41.901C53.1301 41.9803 53.2934 42.0527 53.4848 42.118C53.6761 42.1833 53.9141 42.216 54.1988 42.216C54.4414 42.216 54.6538 42.1857 54.8358 42.125C55.0178 42.0597 55.1694 41.9733 55.2908 41.866C55.4121 41.7587 55.5008 41.635 55.5568 41.495C55.6174 41.355 55.6478 41.2057 55.6478 41.047C55.6478 40.851 55.5941 40.69 55.4868 40.564C55.3841 40.4333 55.2464 40.3237 55.0738 40.235C54.9011 40.1417 54.7028 40.0623 54.4788 39.997C54.2594 39.927 54.0331 39.8547 53.7998 39.78C53.5711 39.7053 53.3448 39.6213 53.1208 39.528C52.9014 39.43 52.7054 39.3087 52.5328 39.164C52.3601 39.0193 52.2201 38.842 52.1128 38.632C52.0101 38.4173 51.9588 38.1583 51.9588 37.855C51.9588 37.5843 52.0148 37.3253 52.1268 37.078C52.2388 36.826 52.4021 36.6067 52.6168 36.42C52.8314 36.2287 53.0951 36.077 53.4078 35.965C53.7204 35.853 54.0774 35.797 54.4788 35.797C54.9454 35.797 55.3631 35.8717 55.7318 36.021C56.1051 36.1657 56.4271 36.3663 56.6978 36.623L56.4178 37.078ZM62.4744 37.078C62.4184 37.1807 62.3321 37.232 62.2154 37.232C62.1454 37.232 62.0661 37.2063 61.9774 37.155C61.8888 37.1037 61.7791 37.0477 61.6484 36.987C61.5224 36.9217 61.3708 36.8633 61.1934 36.812C61.0161 36.756 60.8061 36.728 60.5634 36.728C60.3534 36.728 60.1644 36.756 59.9964 36.812C59.8284 36.8633 59.6838 36.9357 59.5624 37.029C59.4458 37.1223 59.3548 37.232 59.2894 37.358C59.2288 37.4793 59.1984 37.6123 59.1984 37.757C59.1984 37.939 59.2498 38.0907 59.3524 38.212C59.4598 38.3333 59.5998 38.4383 59.7724 38.527C59.9451 38.6157 60.1411 38.695 60.3604 38.765C60.5798 38.8303 60.8038 38.9027 61.0324 38.982C61.2658 39.0567 61.4921 39.1407 61.7114 39.234C61.9308 39.3273 62.1268 39.444 62.2994 39.584C62.4721 39.724 62.6098 39.8967 62.7124 40.102C62.8198 40.3027 62.8734 40.5453 62.8734 40.83C62.8734 41.1567 62.8151 41.46 62.6984 41.74C62.5818 42.0153 62.4091 42.2557 62.1804 42.461C61.9518 42.6617 61.6718 42.8203 61.3404 42.937C61.0091 43.0537 60.6264 43.112 60.1924 43.112C59.6978 43.112 59.2498 43.0327 58.8484 42.874C58.4471 42.7107 58.1064 42.503 57.8264 42.251L58.1204 41.775C58.1578 41.7143 58.2021 41.6677 58.2534 41.635C58.3048 41.6023 58.3701 41.586 58.4494 41.586C58.5334 41.586 58.6221 41.6187 58.7154 41.684C58.8088 41.7493 58.9208 41.8217 59.0514 41.901C59.1868 41.9803 59.3501 42.0527 59.5414 42.118C59.7328 42.1833 59.9708 42.216 60.2554 42.216C60.4981 42.216 60.7104 42.1857 60.8924 42.125C61.0744 42.0597 61.2261 41.9733 61.3474 41.866C61.4688 41.7587 61.5574 41.635 61.6134 41.495C61.6741 41.355 61.7044 41.2057 61.7044 41.047C61.7044 40.851 61.6508 40.69 61.5434 40.564C61.4408 40.4333 61.3031 40.3237 61.1304 40.235C60.9578 40.1417 60.7594 40.0623 60.5354 39.997C60.3161 39.927 60.0898 39.8547 59.8564 39.78C59.6278 39.7053 59.4014 39.6213 59.1774 39.528C58.9581 39.43 58.7621 39.3087 58.5894 39.164C58.4168 39.0193 58.2768 38.842 58.1694 38.632C58.0668 38.4173 58.0154 38.1583 58.0154 37.855C58.0154 37.5843 58.0714 37.3253 58.1834 37.078C58.2954 36.826 58.4588 36.6067 58.6734 36.42C58.8881 36.2287 59.1518 36.077 59.4644 35.965C59.7771 35.853 60.1341 35.797 60.5354 35.797C61.0021 35.797 61.4198 35.8717 61.7884 36.021C62.1618 36.1657 62.4838 36.3663 62.7544 36.623L62.4744 37.078ZM67.3901 35.797C67.9081 35.797 68.3747 35.8833 68.7901 36.056C69.2054 36.2287 69.5601 36.4737 69.8541 36.791C70.1481 37.1083 70.3721 37.4933 70.5261 37.946C70.6847 38.394 70.7641 38.8957 70.7641 39.451C70.7641 40.011 70.6847 40.515 70.5261 40.963C70.3721 41.411 70.1481 41.7937 69.8541 42.111C69.5601 42.4283 69.2054 42.6733 68.7901 42.846C68.3747 43.014 67.9081 43.098 67.3901 43.098C66.8674 43.098 66.3961 43.014 65.9761 42.846C65.5607 42.6733 65.2061 42.4283 64.9121 42.111C64.6181 41.7937 64.3917 41.411 64.2331 40.963C64.0791 40.515 64.0021 40.011 64.0021 39.451C64.0021 38.8957 64.0791 38.394 64.2331 37.946C64.3917 37.4933 64.6181 37.1083 64.9121 36.791C65.2061 36.4737 65.5607 36.2287 65.9761 36.056C66.3961 35.8833 66.8674 35.797 67.3901 35.797ZM67.3901 42.125C68.0901 42.125 68.6127 41.8917 68.9581 41.425C69.3034 40.9537 69.4761 40.298 69.4761 39.458C69.4761 38.6133 69.3034 37.9553 68.9581 37.484C68.6127 37.0127 68.0901 36.777 67.3901 36.777C67.0354 36.777 66.7251 36.8377 66.4591 36.959C66.1977 37.0803 65.9784 37.2553 65.8011 37.484C65.6284 37.7127 65.4977 37.995 65.4091 38.331C65.3251 38.6623 65.2831 39.038 65.2831 39.458C65.2831 40.298 65.4557 40.9537 65.8011 41.425C66.1511 41.8917 66.6807 42.125 67.3901 42.125ZM73.5274 37.33C73.7514 36.8447 74.0268 36.4667 74.3534 36.196C74.6801 35.9207 75.0791 35.783 75.5504 35.783C75.6998 35.783 75.8421 35.7993 75.9774 35.832C76.1174 35.8647 76.2411 35.916 76.3484 35.986L76.2574 36.917C76.2294 37.0337 76.1594 37.092 76.0474 37.092C75.9821 37.092 75.8864 37.078 75.7604 37.05C75.6344 37.022 75.4921 37.008 75.3334 37.008C75.1094 37.008 74.9088 37.0407 74.7314 37.106C74.5588 37.1713 74.4024 37.2693 74.2624 37.4C74.1271 37.526 74.0034 37.6847 73.8914 37.876C73.7841 38.0627 73.6861 38.2773 73.5974 38.52V43H72.3444V35.909H73.0584C73.1938 35.909 73.2871 35.9347 73.3384 35.986C73.3898 36.0373 73.4248 36.126 73.4434 36.252L73.5274 37.33ZM78.76 35.909V43H77.514V35.909H78.76ZM79.026 33.683C79.026 33.8043 79.0004 33.9187 78.949 34.026C78.9024 34.1287 78.837 34.222 78.753 34.306C78.6737 34.3853 78.578 34.4483 78.466 34.495C78.3587 34.5417 78.2444 34.565 78.123 34.565C78.0017 34.565 77.8874 34.5417 77.78 34.495C77.6774 34.4483 77.5864 34.3853 77.507 34.306C77.4277 34.222 77.3647 34.1287 77.318 34.026C77.2714 33.9187 77.248 33.8043 77.248 33.683C77.248 33.5617 77.2714 33.4473 77.318 33.34C77.3647 33.228 77.4277 33.1323 77.507 33.053C77.5864 32.969 77.6774 32.9037 77.78 32.857C77.8874 32.8103 78.0017 32.787 78.123 32.787C78.2444 32.787 78.3587 32.8103 78.466 32.857C78.578 32.9037 78.6737 32.969 78.753 33.053C78.837 33.1323 78.9024 33.228 78.949 33.34C79.0004 33.4473 79.026 33.5617 79.026 33.683ZM85.5533 38.681C85.5533 38.3917 85.5113 38.128 85.4273 37.89C85.348 37.6473 85.229 37.4397 85.0703 37.267C84.9163 37.0897 84.7273 36.9543 84.5033 36.861C84.2793 36.763 84.025 36.714 83.7403 36.714C83.143 36.714 82.6693 36.889 82.3193 37.239C81.974 37.5843 81.7593 38.065 81.6753 38.681H85.5533ZM86.5613 42.006C86.4073 42.1927 86.223 42.356 86.0083 42.496C85.7936 42.6313 85.5626 42.7433 85.3153 42.832C85.0726 42.9207 84.8206 42.986 84.5593 43.028C84.298 43.0747 84.039 43.098 83.7823 43.098C83.2923 43.098 82.8396 43.0163 82.4243 42.853C82.0136 42.685 81.6566 42.4423 81.3533 42.125C81.0546 41.803 80.8213 41.4063 80.6533 40.935C80.4853 40.4637 80.4013 39.9223 80.4013 39.311C80.4013 38.8163 80.476 38.3543 80.6253 37.925C80.7793 37.4957 80.9986 37.1247 81.2833 36.812C81.568 36.4947 81.9156 36.2473 82.3263 36.07C82.737 35.888 83.199 35.797 83.7123 35.797C84.137 35.797 84.529 35.8693 84.8883 36.014C85.2523 36.154 85.565 36.3593 85.8263 36.63C86.0923 36.896 86.3 37.2273 86.4493 37.624C86.5986 38.016 86.6733 38.464 86.6733 38.968C86.6733 39.164 86.6523 39.2947 86.6103 39.36C86.5683 39.4253 86.489 39.458 86.3723 39.458H81.6333C81.6473 39.906 81.708 40.2957 81.8153 40.627C81.9273 40.9583 82.0813 41.236 82.2773 41.46C82.4733 41.6793 82.7066 41.845 82.9773 41.957C83.248 42.0643 83.5513 42.118 83.8873 42.118C84.2 42.118 84.4683 42.083 84.6923 42.013C84.921 41.9383 85.117 41.859 85.2803 41.775C85.4436 41.691 85.579 41.614 85.6863 41.544C85.7983 41.4693 85.894 41.432 85.9733 41.432C86.076 41.432 86.1553 41.4717 86.2113 41.551L86.5613 42.006ZM92.3338 37.078C92.2778 37.1807 92.1915 37.232 92.0748 37.232C92.0048 37.232 91.9255 37.2063 91.8368 37.155C91.7481 37.1037 91.6385 37.0477 91.5078 36.987C91.3818 36.9217 91.2301 36.8633 91.0528 36.812C90.8755 36.756 90.6655 36.728 90.4228 36.728C90.2128 36.728 90.0238 36.756 89.8558 36.812C89.6878 36.8633 89.5431 36.9357 89.4218 37.029C89.3051 37.1223 89.2141 37.232 89.1488 37.358C89.0881 37.4793 89.0578 37.6123 89.0578 37.757C89.0578 37.939 89.1091 38.0907 89.2118 38.212C89.3191 38.3333 89.4591 38.4383 89.6318 38.527C89.8045 38.6157 90.0005 38.695 90.2198 38.765C90.4391 38.8303 90.6631 38.9027 90.8918 38.982C91.1251 39.0567 91.3515 39.1407 91.5708 39.234C91.7901 39.3273 91.9861 39.444 92.1588 39.584C92.3315 39.724 92.4691 39.8967 92.5718 40.102C92.6791 40.3027 92.7328 40.5453 92.7328 40.83C92.7328 41.1567 92.6745 41.46 92.5578 41.74C92.4411 42.0153 92.2685 42.2557 92.0398 42.461C91.8111 42.6617 91.5311 42.8203 91.1998 42.937C90.8685 43.0537 90.4858 43.112 90.0518 43.112C89.5571 43.112 89.1091 43.0327 88.7078 42.874C88.3065 42.7107 87.9658 42.503 87.6858 42.251L87.9798 41.775C88.0171 41.7143 88.0615 41.6677 88.1128 41.635C88.1641 41.6023 88.2295 41.586 88.3088 41.586C88.3928 41.586 88.4815 41.6187 88.5748 41.684C88.6681 41.7493 88.7801 41.8217 88.9108 41.901C89.0461 41.9803 89.2095 42.0527 89.4008 42.118C89.5921 42.1833 89.8301 42.216 90.1148 42.216C90.3575 42.216 90.5698 42.1857 90.7518 42.125C90.9338 42.0597 91.0855 41.9733 91.2068 41.866C91.3281 41.7587 91.4168 41.635 91.4728 41.495C91.5335 41.355 91.5638 41.2057 91.5638 41.047C91.5638 40.851 91.5101 40.69 91.4028 40.564C91.3001 40.4333 91.1625 40.3237 90.9898 40.235C90.8171 40.1417 90.6188 40.0623 90.3948 39.997C90.1755 39.927 89.9491 39.8547 89.7158 39.78C89.4871 39.7053 89.2608 39.6213 89.0368 39.528C88.8175 39.43 88.6215 39.3087 88.4488 39.164C88.2761 39.0193 88.1361 38.842 88.0288 38.632C87.9261 38.4173 87.8748 38.1583 87.8748 37.855C87.8748 37.5843 87.9308 37.3253 88.0428 37.078C88.1548 36.826 88.3181 36.6067 88.5328 36.42C88.7475 36.2287 89.0111 36.077 89.3238 35.965C89.6365 35.853 89.9935 35.797 90.3948 35.797C90.8615 35.797 91.2791 35.8717 91.6478 36.021C92.0211 36.1657 92.3431 36.3663 92.6138 36.623L92.3338 37.078Z" fill="#6F6E6E"/>
<path d="M26.2981 69.922C26.6854 69.922 27.0191 69.8777 27.2991 69.789C27.5791 69.7003 27.8078 69.5767 27.9851 69.418C28.1671 69.2547 28.3001 69.0633 28.3841 68.844C28.4681 68.62 28.5101 68.375 28.5101 68.109C28.5101 67.591 28.3258 67.1827 27.9571 66.884C27.5884 66.5807 27.0354 66.429 26.2981 66.429H24.1281V69.922H26.2981ZM24.1281 62.04V65.463H25.9201C26.3028 65.463 26.6341 65.421 26.9141 65.337C27.1988 65.253 27.4321 65.1363 27.6141 64.987C27.8008 64.8377 27.9384 64.658 28.0271 64.448C28.1158 64.2333 28.1601 64 28.1601 63.748C28.1601 63.1553 27.9828 62.7237 27.6281 62.453C27.2734 62.1777 26.7228 62.04 25.9761 62.04H24.1281ZM25.9761 60.969C26.5921 60.969 27.1218 61.0297 27.5651 61.151C28.0131 61.2723 28.3794 61.445 28.6641 61.669C28.9534 61.893 29.1658 62.1683 29.3011 62.495C29.4364 62.817 29.5041 63.181 29.5041 63.587C29.5041 63.8343 29.4644 64.0723 29.3851 64.301C29.3104 64.525 29.1961 64.735 29.0421 64.931C28.8881 65.127 28.6921 65.3043 28.4541 65.463C28.2208 65.617 27.9454 65.743 27.6281 65.841C28.3654 65.981 28.9184 66.2447 29.2871 66.632C29.6604 67.0147 29.8471 67.5187 29.8471 68.144C29.8471 68.5687 29.7678 68.956 29.6091 69.306C29.4551 69.656 29.2264 69.957 28.9231 70.209C28.6244 70.461 28.2558 70.657 27.8171 70.797C27.3784 70.9323 26.8791 71 26.3191 71H22.7771V60.969H25.9761ZM35.2675 67.808C34.6935 67.8267 34.2035 67.8733 33.7975 67.948C33.3962 68.018 33.0672 68.1113 32.8105 68.228C32.5585 68.3447 32.3742 68.4823 32.2575 68.641C32.1455 68.7997 32.0895 68.977 32.0895 69.173C32.0895 69.3597 32.1198 69.5207 32.1805 69.656C32.2412 69.7913 32.3228 69.9033 32.4255 69.992C32.5328 70.076 32.6565 70.139 32.7965 70.181C32.9412 70.2183 33.0952 70.237 33.2585 70.237C33.4778 70.237 33.6785 70.216 33.8605 70.174C34.0425 70.1273 34.2128 70.062 34.3715 69.978C34.5348 69.894 34.6888 69.7937 34.8335 69.677C34.9828 69.5603 35.1275 69.4273 35.2675 69.278V67.808ZM31.2425 64.91C31.6345 64.532 32.0568 64.2497 32.5095 64.063C32.9622 63.8763 33.4638 63.783 34.0145 63.783C34.4112 63.783 34.7635 63.8483 35.0715 63.979C35.3795 64.1097 35.6385 64.2917 35.8485 64.525C36.0585 64.7583 36.2172 65.0407 36.3245 65.372C36.4318 65.7033 36.4855 66.0673 36.4855 66.464V71H35.9325C35.8112 71 35.7178 70.9813 35.6525 70.944C35.5872 70.902 35.5358 70.8227 35.4985 70.706L35.3585 70.034C35.1718 70.2067 34.9898 70.3607 34.8125 70.496C34.6352 70.6267 34.4485 70.7387 34.2525 70.832C34.0565 70.9207 33.8465 70.9883 33.6225 71.035C33.4032 71.0863 33.1582 71.112 32.8875 71.112C32.6122 71.112 32.3532 71.0747 32.1105 71C31.8678 70.9207 31.6555 70.804 31.4735 70.65C31.2962 70.496 31.1538 70.3023 31.0465 70.069C30.9438 69.831 30.8925 69.551 30.8925 69.229C30.8925 68.949 30.9695 68.6807 31.1235 68.424C31.2775 68.1627 31.5272 67.9317 31.8725 67.731C32.2178 67.5303 32.6682 67.367 33.2235 67.241C33.7788 67.1103 34.4602 67.0357 35.2675 67.017V66.464C35.2675 65.9133 35.1485 65.498 34.9105 65.218C34.6725 64.9333 34.3248 64.791 33.8675 64.791C33.5595 64.791 33.3005 64.8307 33.0905 64.91C32.8852 64.9847 32.7055 65.071 32.5515 65.169C32.4022 65.2623 32.2715 65.3487 32.1595 65.428C32.0522 65.5027 31.9448 65.54 31.8375 65.54C31.7535 65.54 31.6812 65.519 31.6205 65.477C31.5598 65.4303 31.5085 65.3743 31.4665 65.309L31.2425 64.91ZM40.8545 67.535C41.1065 67.535 41.3282 67.5 41.5195 67.43C41.7108 67.36 41.8718 67.262 42.0025 67.136C42.1332 67.01 42.2312 66.8607 42.2965 66.688C42.3618 66.5107 42.3945 66.317 42.3945 66.107C42.3945 65.673 42.2615 65.3277 41.9955 65.071C41.7342 64.8143 41.3538 64.686 40.8545 64.686C40.3505 64.686 39.9655 64.8143 39.6995 65.071C39.4382 65.3277 39.3075 65.673 39.3075 66.107C39.3075 66.317 39.3402 66.5107 39.4055 66.688C39.4755 66.8607 39.5758 67.01 39.7065 67.136C39.8372 67.262 39.9982 67.36 40.1895 67.43C40.3808 67.5 40.6025 67.535 40.8545 67.535ZM43.1015 71.385C43.1015 71.2123 43.0525 71.0723 42.9545 70.965C42.8565 70.8577 42.7235 70.7737 42.5555 70.713C42.3922 70.6523 42.2008 70.6103 41.9815 70.587C41.7622 70.559 41.5288 70.538 41.2815 70.524C41.0388 70.51 40.7915 70.496 40.5395 70.482C40.2875 70.468 40.0448 70.4447 39.8115 70.412C39.5502 70.5333 39.3355 70.6873 39.1675 70.874C39.0042 71.056 38.9225 71.2707 38.9225 71.518C38.9225 71.6767 38.9622 71.8237 39.0415 71.959C39.1255 72.099 39.2515 72.218 39.4195 72.316C39.5875 72.4187 39.7975 72.498 40.0495 72.554C40.3062 72.6147 40.6072 72.645 40.9525 72.645C41.2885 72.645 41.5895 72.6147 41.8555 72.554C42.1215 72.4933 42.3455 72.407 42.5275 72.295C42.7142 72.183 42.8565 72.05 42.9545 71.896C43.0525 71.742 43.1015 71.5717 43.1015 71.385ZM44.3685 64.189V64.651C44.3685 64.805 44.2705 64.903 44.0745 64.945L43.2695 65.05C43.4282 65.358 43.5075 65.6987 43.5075 66.072C43.5075 66.4173 43.4398 66.7323 43.3045 67.017C43.1738 67.297 42.9918 67.5373 42.7585 67.738C42.5252 67.9387 42.2452 68.0927 41.9185 68.2C41.5918 68.3073 41.2372 68.361 40.8545 68.361C40.5232 68.361 40.2105 68.3213 39.9165 68.242C39.7672 68.3353 39.6528 68.4357 39.5735 68.543C39.4942 68.6457 39.4545 68.7507 39.4545 68.858C39.4545 69.026 39.5222 69.1543 39.6575 69.243C39.7975 69.327 39.9795 69.3877 40.2035 69.425C40.4275 69.4623 40.6818 69.4857 40.9665 69.495C41.2558 69.5043 41.5498 69.5207 41.8485 69.544C42.1518 69.5627 42.4458 69.5977 42.7305 69.649C43.0198 69.7003 43.2765 69.7843 43.5005 69.901C43.7245 70.0177 43.9042 70.1787 44.0395 70.384C44.1795 70.5893 44.2495 70.8553 44.2495 71.182C44.2495 71.4853 44.1725 71.7793 44.0185 72.064C43.8692 72.3487 43.6522 72.6007 43.3675 72.82C43.0828 73.044 42.7328 73.2213 42.3175 73.352C41.9068 73.4873 41.4425 73.555 40.9245 73.555C40.4065 73.555 39.9538 73.5037 39.5665 73.401C39.1792 73.2983 38.8572 73.1607 38.6005 72.988C38.3438 72.8153 38.1502 72.6147 38.0195 72.386C37.8935 72.162 37.8305 71.9263 37.8305 71.679C37.8305 71.329 37.9402 71.0327 38.1595 70.79C38.3788 70.5473 38.6798 70.3537 39.0625 70.209C38.8525 70.1157 38.6845 69.992 38.5585 69.838C38.4372 69.6793 38.3765 69.467 38.3765 69.201C38.3765 69.0983 38.3952 68.9933 38.4325 68.886C38.4698 68.774 38.5258 68.6643 38.6005 68.557C38.6798 68.445 38.7755 68.34 38.8875 68.242C38.9995 68.144 39.1302 68.0577 39.2795 67.983C38.9295 67.787 38.6565 67.528 38.4605 67.206C38.2645 66.8793 38.1665 66.5013 38.1665 66.072C38.1665 65.7267 38.2318 65.414 38.3625 65.134C38.4978 64.8493 38.6845 64.609 38.9225 64.413C39.1605 64.2123 39.4428 64.0583 39.7695 63.951C40.1008 63.8437 40.4625 63.79 40.8545 63.79C41.1625 63.79 41.4495 63.825 41.7155 63.895C41.9815 63.9603 42.2242 64.0583 42.4435 64.189H44.3685ZM49.7869 65.078C49.7309 65.1807 49.6446 65.232 49.5279 65.232C49.4579 65.232 49.3786 65.2063 49.2899 65.155C49.2013 65.1037 49.0916 65.0477 48.9609 64.987C48.8349 64.9217 48.6833 64.8633 48.5059 64.812C48.3286 64.756 48.1186 64.728 47.8759 64.728C47.6659 64.728 47.4769 64.756 47.3089 64.812C47.1409 64.8633 46.9963 64.9357 46.8749 65.029C46.7583 65.1223 46.6673 65.232 46.6019 65.358C46.5413 65.4793 46.5109 65.6123 46.5109 65.757C46.5109 65.939 46.5623 66.0907 46.6649 66.212C46.7723 66.3333 46.9123 66.4383 47.0849 66.527C47.2576 66.6157 47.4536 66.695 47.6729 66.765C47.8923 66.8303 48.1163 66.9027 48.3449 66.982C48.5783 67.0567 48.8046 67.1407 49.0239 67.234C49.2433 67.3273 49.4393 67.444 49.6119 67.584C49.7846 67.724 49.9223 67.8967 50.0249 68.102C50.1323 68.3027 50.1859 68.5453 50.1859 68.83C50.1859 69.1567 50.1276 69.46 50.0109 69.74C49.8943 70.0153 49.7216 70.2557 49.4929 70.461C49.2643 70.6617 48.9843 70.8203 48.6529 70.937C48.3216 71.0537 47.9389 71.112 47.5049 71.112C47.0103 71.112 46.5623 71.0327 46.1609 70.874C45.7596 70.7107 45.4189 70.503 45.1389 70.251L45.4329 69.775C45.4703 69.7143 45.5146 69.6677 45.5659 69.635C45.6173 69.6023 45.6826 69.586 45.7619 69.586C45.8459 69.586 45.9346 69.6187 46.0279 69.684C46.1213 69.7493 46.2333 69.8217 46.3639 69.901C46.4993 69.9803 46.6626 70.0527 46.8539 70.118C47.0453 70.1833 47.2833 70.216 47.5679 70.216C47.8106 70.216 48.0229 70.1857 48.2049 70.125C48.3869 70.0597 48.5386 69.9733 48.6599 69.866C48.7813 69.7587 48.8699 69.635 48.9259 69.495C48.9866 69.355 49.0169 69.2057 49.0169 69.047C49.0169 68.851 48.9633 68.69 48.8559 68.564C48.7533 68.4333 48.6156 68.3237 48.4429 68.235C48.2703 68.1417 48.0719 68.0623 47.8479 67.997C47.6286 67.927 47.4023 67.8547 47.1689 67.78C46.9403 67.7053 46.7139 67.6213 46.4899 67.528C46.2706 67.43 46.0746 67.3087 45.9019 67.164C45.7293 67.0193 45.5893 66.842 45.4819 66.632C45.3793 66.4173 45.3279 66.1583 45.3279 65.855C45.3279 65.5843 45.3839 65.3253 45.4959 65.078C45.6079 64.826 45.7713 64.6067 45.9859 64.42C46.2006 64.2287 46.4643 64.077 46.7769 63.965C47.0896 63.853 47.4466 63.797 47.8479 63.797C48.3146 63.797 48.7323 63.8717 49.1009 64.021C49.4743 64.1657 49.7963 64.3663 50.0669 64.623L49.7869 65.078Z" fill="#6F6E6E"/>
<path d="M31.4711 93.988C31.4711 94.7393 31.3521 95.423 31.1141 96.039C30.8761 96.655 30.5401 97.1823 30.1061 97.621C29.6721 98.0597 29.1494 98.4003 28.5381 98.643C27.9314 98.881 27.2594 99 26.5221 99H22.7771V88.969H26.5221C27.2594 88.969 27.9314 89.0903 28.5381 89.333C29.1494 89.571 29.6721 89.9117 30.1061 90.355C30.5401 90.7937 30.8761 91.321 31.1141 91.937C31.3521 92.553 31.4711 93.2367 31.4711 93.988ZM30.0781 93.988C30.0781 93.372 29.9941 92.8213 29.8261 92.336C29.6581 91.8507 29.4201 91.44 29.1121 91.104C28.8041 90.768 28.4308 90.5113 27.9921 90.334C27.5534 90.1567 27.0634 90.068 26.5221 90.068H24.1351V97.901H26.5221C27.0634 97.901 27.5534 97.8123 27.9921 97.635C28.4308 97.4577 28.8041 97.2033 29.1121 96.872C29.4201 96.536 29.6581 96.1253 29.8261 95.64C29.9941 95.1547 30.0781 94.604 30.0781 93.988ZM37.7838 94.681C37.7838 94.3917 37.7418 94.128 37.6578 93.89C37.5784 93.6473 37.4594 93.4397 37.3008 93.267C37.1468 93.0897 36.9578 92.9543 36.7338 92.861C36.5098 92.763 36.2554 92.714 35.9708 92.714C35.3734 92.714 34.8998 92.889 34.5498 93.239C34.2044 93.5843 33.9898 94.065 33.9058 94.681H37.7838ZM38.7918 98.006C38.6378 98.1927 38.4534 98.356 38.2388 98.496C38.0241 98.6313 37.7931 98.7433 37.5458 98.832C37.3031 98.9207 37.0511 98.986 36.7898 99.028C36.5284 99.0747 36.2694 99.098 36.0128 99.098C35.5228 99.098 35.0701 99.0163 34.6548 98.853C34.2441 98.685 33.8871 98.4423 33.5838 98.125C33.2851 97.803 33.0518 97.4063 32.8838 96.935C32.7158 96.4637 32.6318 95.9223 32.6318 95.311C32.6318 94.8163 32.7064 94.3543 32.8558 93.925C33.0098 93.4957 33.2291 93.1247 33.5138 92.812C33.7984 92.4947 34.1461 92.2473 34.5568 92.07C34.9674 91.888 35.4294 91.797 35.9428 91.797C36.3674 91.797 36.7594 91.8693 37.1188 92.014C37.4828 92.154 37.7954 92.3593 38.0568 92.63C38.3228 92.896 38.5304 93.2273 38.6798 93.624C38.8291 94.016 38.9038 94.464 38.9038 94.968C38.9038 95.164 38.8828 95.2947 38.8408 95.36C38.7988 95.4253 38.7194 95.458 38.6028 95.458H33.8638C33.8778 95.906 33.9384 96.2957 34.0458 96.627C34.1578 96.9583 34.3118 97.236 34.5078 97.46C34.7038 97.6793 34.9371 97.845 35.2078 97.957C35.4784 98.0643 35.7818 98.118 36.1178 98.118C36.4304 98.118 36.6988 98.083 36.9228 98.013C37.1514 97.9383 37.3474 97.859 37.5108 97.775C37.6741 97.691 37.8094 97.614 37.9168 97.544C38.0288 97.4693 38.1244 97.432 38.2038 97.432C38.3064 97.432 38.3858 97.4717 38.4418 97.551L38.7918 98.006ZM41.6103 92.938C41.7643 92.7653 41.9276 92.609 42.1003 92.469C42.2729 92.329 42.4549 92.21 42.6463 92.112C42.8423 92.0093 43.0476 91.9323 43.2623 91.881C43.4816 91.825 43.7173 91.797 43.9693 91.797C44.3566 91.797 44.6973 91.8623 44.9913 91.993C45.2899 92.119 45.5373 92.301 45.7333 92.539C45.9339 92.7723 46.0856 93.0547 46.1883 93.386C46.2909 93.7173 46.3423 94.0837 46.3423 94.485V99H45.0893V94.485C45.0893 93.9483 44.9656 93.533 44.7183 93.239C44.4756 92.9403 44.1046 92.791 43.6053 92.791C43.2366 92.791 42.8913 92.8797 42.5693 93.057C42.2519 93.2343 41.9579 93.4747 41.6873 93.778V99H40.4343V91.909H41.1833C41.3606 91.909 41.4703 91.9953 41.5123 92.168L41.6103 92.938ZM49.5569 91.909V99H48.3109V91.909H49.5569ZM49.8229 89.683C49.8229 89.8043 49.7972 89.9187 49.7459 90.026C49.6992 90.1287 49.6339 90.222 49.5499 90.306C49.4706 90.3853 49.3749 90.4483 49.2629 90.495C49.1556 90.5417 49.0412 90.565 48.9199 90.565C48.7986 90.565 48.6842 90.5417 48.5769 90.495C48.4742 90.4483 48.3832 90.3853 48.3039 90.306C48.2246 90.222 48.1616 90.1287 48.1149 90.026C48.0682 89.9187 48.0449 89.8043 48.0449 89.683C48.0449 89.5617 48.0682 89.4473 48.1149 89.34C48.1616 89.228 48.2246 89.1323 48.3039 89.053C48.3832 88.969 48.4742 88.9037 48.5769 88.857C48.6842 88.8103 48.7986 88.787 48.9199 88.787C49.0412 88.787 49.1556 88.8103 49.2629 88.857C49.3749 88.9037 49.4706 88.969 49.5499 89.053C49.6339 89.1323 49.6992 89.228 49.7459 89.34C49.7972 89.4473 49.8229 89.5617 49.8229 89.683ZM51.6042 99V91.909H52.3532C52.5305 91.909 52.6402 91.9953 52.6822 92.168L52.7732 92.896C53.0345 92.574 53.3285 92.3103 53.6552 92.105C53.9819 91.8997 54.3599 91.797 54.7892 91.797C55.2652 91.797 55.6502 91.93 55.9442 92.196C56.2429 92.462 56.4575 92.8213 56.5882 93.274C56.6909 93.0173 56.8215 92.7957 56.9802 92.609C57.1435 92.4223 57.3255 92.2683 57.5262 92.147C57.7269 92.0257 57.9392 91.937 58.1632 91.881C58.3919 91.825 58.6229 91.797 58.8562 91.797C59.2295 91.797 59.5609 91.8577 59.8502 91.979C60.1442 92.0957 60.3915 92.2683 60.5922 92.497C60.7975 92.7257 60.9539 93.008 61.0612 93.344C61.1685 93.6753 61.2222 94.0557 61.2222 94.485V99H59.9692V94.485C59.9692 93.9297 59.8479 93.5097 59.6052 93.225C59.3625 92.9357 59.0125 92.791 58.5552 92.791C58.3499 92.791 58.1539 92.8283 57.9672 92.903C57.7852 92.973 57.6242 93.078 57.4842 93.218C57.3442 93.358 57.2322 93.5353 57.1482 93.75C57.0689 93.96 57.0292 94.205 57.0292 94.485V99H55.7762V94.485C55.7762 93.9157 55.6619 93.491 55.4332 93.211C55.2045 92.931 54.8709 92.791 54.4322 92.791C54.1242 92.791 53.8395 92.875 53.5782 93.043C53.3169 93.2063 53.0765 93.4303 52.8572 93.715V99H51.6042Z" fill="#6F6E6E"/>
<path d="M30.064 118.11H26.816V127H25.465V118.11H22.21V116.969H30.064V118.11ZM30.2988 122.275H33.7568V123.332H30.2988V122.275ZM41.0311 118.537C40.9891 118.607 40.9425 118.661 40.8911 118.698C40.8445 118.731 40.7861 118.747 40.7161 118.747C40.6368 118.747 40.5435 118.707 40.4361 118.628C40.3288 118.549 40.1935 118.462 40.0301 118.369C39.8715 118.271 39.6778 118.182 39.4491 118.103C39.2251 118.024 38.9521 117.984 38.6301 117.984C38.3268 117.984 38.0585 118.026 37.8251 118.11C37.5965 118.189 37.4028 118.299 37.2441 118.439C37.0901 118.579 36.9735 118.745 36.8941 118.936C36.8148 119.123 36.7751 119.326 36.7751 119.545C36.7751 119.825 36.8428 120.058 36.9781 120.245C37.1181 120.427 37.3001 120.583 37.5241 120.714C37.7528 120.845 38.0095 120.959 38.2941 121.057C38.5835 121.15 38.8775 121.248 39.1761 121.351C39.4795 121.454 39.7735 121.57 40.0581 121.701C40.3475 121.827 40.6041 121.988 40.8281 122.184C41.0568 122.38 41.2388 122.62 41.3741 122.905C41.5141 123.19 41.5841 123.54 41.5841 123.955C41.5841 124.394 41.5095 124.807 41.3601 125.194C41.2108 125.577 40.9915 125.91 40.7021 126.195C40.4175 126.48 40.0651 126.704 39.6451 126.867C39.2298 127.03 38.7561 127.112 38.2241 127.112C37.5708 127.112 36.9781 126.995 36.4461 126.762C35.9141 126.524 35.4591 126.204 35.0811 125.803L35.4731 125.159C35.5105 125.108 35.5548 125.066 35.6061 125.033C35.6621 124.996 35.7228 124.977 35.7881 124.977C35.8488 124.977 35.9165 125.003 35.9911 125.054C36.0705 125.101 36.1591 125.161 36.2571 125.236C36.3551 125.311 36.4671 125.392 36.5931 125.481C36.7191 125.57 36.8615 125.651 37.0201 125.726C37.1835 125.801 37.3678 125.864 37.5731 125.915C37.7785 125.962 38.0095 125.985 38.2661 125.985C38.5881 125.985 38.8751 125.941 39.1271 125.852C39.3791 125.763 39.5915 125.64 39.7641 125.481C39.9415 125.318 40.0768 125.124 40.1701 124.9C40.2635 124.676 40.3101 124.426 40.3101 124.151C40.3101 123.848 40.2401 123.6 40.1001 123.409C39.9648 123.213 39.7851 123.05 39.5611 122.919C39.3371 122.788 39.0805 122.679 38.7911 122.59C38.5018 122.497 38.2078 122.403 37.9091 122.31C37.6105 122.212 37.3165 122.1 37.0271 121.974C36.7378 121.848 36.4811 121.685 36.2571 121.484C36.0331 121.283 35.8511 121.034 35.7111 120.735C35.5758 120.432 35.5081 120.058 35.5081 119.615C35.5081 119.26 35.5758 118.917 35.7111 118.586C35.8511 118.255 36.0518 117.961 36.3131 117.704C36.5791 117.447 36.9035 117.242 37.2861 117.088C37.6735 116.934 38.1168 116.857 38.6161 116.857C39.1761 116.857 39.6848 116.946 40.1421 117.123C40.6041 117.3 41.0101 117.557 41.3601 117.893L41.0311 118.537ZM44.3377 120.854C44.641 120.532 44.977 120.275 45.3457 120.084C45.7143 119.893 46.139 119.797 46.6197 119.797C47.007 119.797 47.3477 119.862 47.6417 119.993C47.9403 120.119 48.1877 120.301 48.3837 120.539C48.5843 120.772 48.736 121.055 48.8387 121.386C48.9413 121.717 48.9927 122.084 48.9927 122.485V127H47.7397V122.485C47.7397 121.948 47.616 121.533 47.3687 121.239C47.126 120.94 46.755 120.791 46.2557 120.791C45.887 120.791 45.5417 120.88 45.2197 121.057C44.9023 121.234 44.6083 121.475 44.3377 121.778V127H43.0847V116.689H44.3377V120.854ZM52.2073 119.909V127H50.9613V119.909H52.2073ZM52.4733 117.683C52.4733 117.804 52.4476 117.919 52.3963 118.026C52.3496 118.129 52.2843 118.222 52.2003 118.306C52.121 118.385 52.0253 118.448 51.9133 118.495C51.806 118.542 51.6916 118.565 51.5703 118.565C51.449 118.565 51.3346 118.542 51.2273 118.495C51.1246 118.448 51.0336 118.385 50.9543 118.306C50.875 118.222 50.812 118.129 50.7653 118.026C50.7186 117.919 50.6953 117.804 50.6953 117.683C50.6953 117.562 50.7186 117.447 50.7653 117.34C50.812 117.228 50.875 117.132 50.9543 117.053C51.0336 116.969 51.1246 116.904 51.2273 116.857C51.3346 116.81 51.449 116.787 51.5703 116.787C51.6916 116.787 51.806 116.81 51.9133 116.857C52.0253 116.904 52.121 116.969 52.2003 117.053C52.2843 117.132 52.3496 117.228 52.3963 117.34C52.4476 117.447 52.4733 117.562 52.4733 117.683ZM55.4376 121.33C55.6616 120.845 55.9369 120.467 56.2636 120.196C56.5902 119.921 56.9892 119.783 57.4606 119.783C57.6099 119.783 57.7522 119.799 57.8876 119.832C58.0276 119.865 58.1512 119.916 58.2586 119.986L58.1676 120.917C58.1396 121.034 58.0696 121.092 57.9576 121.092C57.8922 121.092 57.7966 121.078 57.6706 121.05C57.5446 121.022 57.4022 121.008 57.2436 121.008C57.0196 121.008 56.8189 121.041 56.6416 121.106C56.4689 121.171 56.3126 121.269 56.1726 121.4C56.0372 121.526 55.9136 121.685 55.8016 121.876C55.6942 122.063 55.5962 122.277 55.5076 122.52V127H54.2546V119.909H54.9686C55.1039 119.909 55.1972 119.935 55.2486 119.986C55.2999 120.037 55.3349 120.126 55.3536 120.252L55.4376 121.33ZM61.5312 127.112C60.9712 127.112 60.5395 126.956 60.2362 126.643C59.9375 126.33 59.7882 125.88 59.7882 125.292V120.952H58.9342C58.8595 120.952 58.7965 120.931 58.7452 120.889C58.6939 120.842 58.6682 120.772 58.6682 120.679V120.182L59.8302 120.035L60.1172 117.844C60.1312 117.774 60.1615 117.718 60.2082 117.676C60.2595 117.629 60.3249 117.606 60.4042 117.606H61.0342V120.049H63.0852V120.952H61.0342V125.208C61.0342 125.507 61.1065 125.728 61.2512 125.873C61.3959 126.018 61.5825 126.09 61.8112 126.09C61.9419 126.09 62.0539 126.074 62.1472 126.041C62.2452 126.004 62.3292 125.964 62.3992 125.922C62.4692 125.88 62.5275 125.843 62.5742 125.81C62.6255 125.773 62.6699 125.754 62.7072 125.754C62.7725 125.754 62.8309 125.794 62.8822 125.873L63.2462 126.468C63.0315 126.669 62.7725 126.827 62.4692 126.944C62.1659 127.056 61.8532 127.112 61.5312 127.112ZM68.5018 121.078C68.4458 121.181 68.3594 121.232 68.2428 121.232C68.1728 121.232 68.0934 121.206 68.0048 121.155C67.9161 121.104 67.8064 121.048 67.6758 120.987C67.5498 120.922 67.3981 120.863 67.2208 120.812C67.0434 120.756 66.8334 120.728 66.5908 120.728C66.3808 120.728 66.1918 120.756 66.0238 120.812C65.8558 120.863 65.7111 120.936 65.5898 121.029C65.4731 121.122 65.3821 121.232 65.3168 121.358C65.2561 121.479 65.2258 121.612 65.2258 121.757C65.2258 121.939 65.2771 122.091 65.3798 122.212C65.4871 122.333 65.6271 122.438 65.7998 122.527C65.9724 122.616 66.1684 122.695 66.3878 122.765C66.6071 122.83 66.8311 122.903 67.0598 122.982C67.2931 123.057 67.5194 123.141 67.7388 123.234C67.9581 123.327 68.1541 123.444 68.3268 123.584C68.4994 123.724 68.6371 123.897 68.7398 124.102C68.8471 124.303 68.9008 124.545 68.9008 124.83C68.9008 125.157 68.8424 125.46 68.7258 125.74C68.6091 126.015 68.4364 126.256 68.2078 126.461C67.9791 126.662 67.6991 126.82 67.3678 126.937C67.0364 127.054 66.6538 127.112 66.2198 127.112C65.7251 127.112 65.2771 127.033 64.8758 126.874C64.4744 126.711 64.1338 126.503 63.8538 126.251L64.1478 125.775C64.1851 125.714 64.2294 125.668 64.2808 125.635C64.3321 125.602 64.3974 125.586 64.4768 125.586C64.5608 125.586 64.6494 125.619 64.7428 125.684C64.8361 125.749 64.9481 125.822 65.0788 125.901C65.2141 125.98 65.3774 126.053 65.5688 126.118C65.7601 126.183 65.9981 126.216 66.2828 126.216C66.5254 126.216 66.7378 126.186 66.9198 126.125C67.1018 126.06 67.2534 125.973 67.3748 125.866C67.4961 125.759 67.5848 125.635 67.6408 125.495C67.7014 125.355 67.7318 125.206 67.7318 125.047C67.7318 124.851 67.6781 124.69 67.5708 124.564C67.4681 124.433 67.3304 124.324 67.1578 124.235C66.9851 124.142 66.7868 124.062 66.5628 123.997C66.3434 123.927 66.1171 123.855 65.8838 123.78C65.6551 123.705 65.4288 123.621 65.2048 123.528C64.9854 123.43 64.7894 123.309 64.6168 123.164C64.4441 123.019 64.3041 122.842 64.1968 122.632C64.0941 122.417 64.0428 122.158 64.0428 121.855C64.0428 121.584 64.0988 121.325 64.2108 121.078C64.3228 120.826 64.4861 120.607 64.7008 120.42C64.9154 120.229 65.1791 120.077 65.4918 119.965C65.8044 119.853 66.1614 119.797 66.5628 119.797C67.0294 119.797 67.4471 119.872 67.8158 120.021C68.1891 120.166 68.5111 120.366 68.7818 120.623L68.5018 121.078Z" fill="#6F6E6E"/>
<path d="M11.718 3.969V14H10.528V6.629C10.528 6.531 10.5303 6.426 10.535 6.314C10.5443 6.202 10.5537 6.08767 10.563 5.971L7.119 12.243C7.01167 12.453 6.84833 12.558 6.629 12.558H6.433C6.21367 12.558 6.05033 12.453 5.943 12.243L2.429 5.943C2.457 6.19033 2.471 6.419 2.471 6.629V14H1.281V3.969H2.282C2.40333 3.969 2.49667 3.98067 2.562 4.004C2.62733 4.02733 2.69033 4.09267 2.751 4.2L6.216 10.374C6.272 10.486 6.32567 10.6027 6.377 10.724C6.433 10.8453 6.48433 10.969 6.531 11.095C6.57767 10.969 6.62667 10.8453 6.678 10.724C6.72933 10.598 6.78533 10.479 6.846 10.367L10.248 4.2C10.304 4.09267 10.3647 4.02733 10.43 4.004C10.5 3.98067 10.5957 3.969 10.717 3.969H11.718ZM19.61 10.276L18.035 6.195C17.9883 6.07367 17.9393 5.93367 17.888 5.775C17.8366 5.61167 17.7876 5.439 17.741 5.257C17.643 5.635 17.5426 5.95 17.44 6.202L15.865 10.276H19.61ZM22.438 14H21.388C21.2666 14 21.1686 13.9697 21.094 13.909C21.0193 13.8483 20.9633 13.7713 20.926 13.678L19.988 11.256H15.487L14.549 13.678C14.521 13.762 14.4673 13.8367 14.388 13.902C14.3086 13.9673 14.2106 14 14.094 14H13.044L17.055 3.969H18.427L22.438 14ZM31.8846 3.969V14H31.2056C31.0982 14 31.0072 13.9813 30.9326 13.944C30.8626 13.9067 30.7926 13.8437 30.7226 13.755L24.9196 6.195C24.9289 6.31167 24.9359 6.426 24.9406 6.538C24.9452 6.65 24.9476 6.755 24.9476 6.853V14H23.7576V3.969H24.4576C24.5182 3.969 24.5696 3.97367 24.6116 3.983C24.6536 3.98767 24.6909 3.99933 24.7236 4.018C24.7562 4.032 24.7889 4.05533 24.8216 4.088C24.8542 4.116 24.8892 4.15333 24.9266 4.2L30.7296 11.753C30.7202 11.6317 30.7109 11.515 30.7016 11.403C30.6969 11.2863 30.6946 11.1767 30.6946 11.074V3.969H31.8846Z" fill="#F16D7F"/>
</svg>
