<svg width="557" height="137" viewBox="0 0 557 137" fill="none" xmlns="http://www.w3.org/2000/svg">
<path d="M404.376 88H126.214C113.946 88 104 98.969 104 112.5C104 126.031 113.946 137 126.214 137H404.376C416.644 137 426.59 126.031 426.59 112.5C426.59 98.969 416.644 88 404.376 88Z" fill="#E1E1E1"/>
<path d="M360 88H437.885C443.75 88 449.375 90.5813 453.523 95.1759C457.67 99.7706 460 106.002 460 112.5C460 118.998 457.67 125.229 453.523 129.824C449.375 134.419 443.75 137 437.885 137H360V88Z" fill="#F16D7F"/>
<path d="M387.141 109.537C387.099 109.607 387.053 109.661 387.001 109.698C386.955 109.731 386.896 109.747 386.826 109.747C386.747 109.747 386.654 109.707 386.546 109.628C386.439 109.549 386.304 109.462 386.14 109.369C385.982 109.271 385.788 109.182 385.559 109.103C385.335 109.024 385.062 108.984 384.74 108.984C384.437 108.984 384.169 109.026 383.935 109.11C383.707 109.189 383.513 109.299 383.354 109.439C383.2 109.579 383.084 109.745 383.004 109.936C382.925 110.123 382.885 110.326 382.885 110.545C382.885 110.825 382.953 111.058 383.088 111.245C383.228 111.427 383.41 111.583 383.634 111.714C383.863 111.845 384.12 111.959 384.404 112.057C384.694 112.15 384.988 112.248 385.286 112.351C385.59 112.454 385.884 112.57 386.168 112.701C386.458 112.827 386.714 112.988 386.938 113.184C387.167 113.38 387.349 113.62 387.484 113.905C387.624 114.19 387.694 114.54 387.694 114.955C387.694 115.394 387.62 115.807 387.47 116.194C387.321 116.577 387.102 116.91 386.812 117.195C386.528 117.48 386.175 117.704 385.755 117.867C385.34 118.03 384.866 118.112 384.334 118.112C383.681 118.112 383.088 117.995 382.556 117.762C382.024 117.524 381.569 117.204 381.191 116.803L381.583 116.159C381.621 116.108 381.665 116.066 381.716 116.033C381.772 115.996 381.833 115.977 381.898 115.977C381.959 115.977 382.027 116.003 382.101 116.054C382.181 116.101 382.269 116.161 382.367 116.236C382.465 116.311 382.577 116.392 382.703 116.481C382.829 116.57 382.972 116.651 383.13 116.726C383.294 116.801 383.478 116.864 383.683 116.915C383.889 116.962 384.12 116.985 384.376 116.985C384.698 116.985 384.985 116.941 385.237 116.852C385.489 116.763 385.702 116.64 385.874 116.481C386.052 116.318 386.187 116.124 386.28 115.9C386.374 115.676 386.42 115.426 386.42 115.151C386.42 114.848 386.35 114.6 386.21 114.409C386.075 114.213 385.895 114.05 385.671 113.919C385.447 113.788 385.191 113.679 384.901 113.59C384.612 113.497 384.318 113.403 384.019 113.31C383.721 113.212 383.427 113.1 383.137 112.974C382.848 112.848 382.591 112.685 382.367 112.484C382.143 112.283 381.961 112.034 381.821 111.735C381.686 111.432 381.618 111.058 381.618 110.615C381.618 110.26 381.686 109.917 381.821 109.586C381.961 109.255 382.162 108.961 382.423 108.704C382.689 108.447 383.014 108.242 383.396 108.088C383.784 107.934 384.227 107.857 384.726 107.857C385.286 107.857 385.795 107.946 386.252 108.123C386.714 108.3 387.12 108.557 387.47 108.893L387.141 109.537ZM395.012 110.909V118H394.27C394.093 118 393.981 117.914 393.934 117.741L393.836 116.978C393.528 117.319 393.183 117.594 392.8 117.804C392.418 118.009 391.979 118.112 391.484 118.112C391.097 118.112 390.754 118.049 390.455 117.923C390.161 117.792 389.914 117.61 389.713 117.377C389.513 117.144 389.361 116.861 389.258 116.53C389.16 116.199 389.111 115.832 389.111 115.431V110.909H390.357V115.431C390.357 115.968 390.479 116.383 390.721 116.677C390.969 116.971 391.344 117.118 391.848 117.118C392.217 117.118 392.56 117.032 392.877 116.859C393.199 116.682 393.496 116.439 393.766 116.131V110.909H395.012ZM398.241 116.292C398.47 116.6 398.719 116.817 398.99 116.943C399.265 117.069 399.566 117.132 399.893 117.132C400.56 117.132 401.071 116.896 401.426 116.425C401.781 115.954 401.958 115.251 401.958 114.318C401.958 113.45 401.799 112.813 401.482 112.407C401.169 111.996 400.721 111.791 400.138 111.791C399.732 111.791 399.377 111.884 399.074 112.071C398.775 112.258 398.498 112.521 398.241 112.862V116.292ZM398.241 111.931C398.54 111.586 398.876 111.31 399.249 111.105C399.627 110.9 400.061 110.797 400.551 110.797C400.966 110.797 401.34 110.876 401.671 111.035C402.007 111.194 402.292 111.425 402.525 111.728C402.758 112.027 402.936 112.391 403.057 112.82C403.183 113.249 403.246 113.732 403.246 114.269C403.246 114.843 403.176 115.366 403.036 115.837C402.896 116.308 402.693 116.712 402.427 117.048C402.166 117.379 401.846 117.638 401.468 117.825C401.09 118.007 400.665 118.098 400.194 118.098C399.727 118.098 399.333 118.012 399.011 117.839C398.694 117.662 398.416 117.412 398.178 117.09L398.115 117.734C398.078 117.911 397.97 118 397.793 118H396.988V107.689H398.241V111.931ZM408.952 112.078C408.896 112.181 408.81 112.232 408.693 112.232C408.623 112.232 408.544 112.206 408.455 112.155C408.366 112.104 408.257 112.048 408.126 111.987C408 111.922 407.848 111.863 407.671 111.812C407.494 111.756 407.284 111.728 407.041 111.728C406.831 111.728 406.642 111.756 406.474 111.812C406.306 111.863 406.161 111.936 406.04 112.029C405.923 112.122 405.832 112.232 405.767 112.358C405.706 112.479 405.676 112.612 405.676 112.757C405.676 112.939 405.727 113.091 405.83 113.212C405.937 113.333 406.077 113.438 406.25 113.527C406.423 113.616 406.619 113.695 406.838 113.765C407.057 113.83 407.281 113.903 407.51 113.982C407.743 114.057 407.97 114.141 408.189 114.234C408.408 114.327 408.604 114.444 408.777 114.584C408.95 114.724 409.087 114.897 409.19 115.102C409.297 115.303 409.351 115.545 409.351 115.83C409.351 116.157 409.293 116.46 409.176 116.74C409.059 117.015 408.887 117.256 408.658 117.461C408.429 117.662 408.149 117.82 407.818 117.937C407.487 118.054 407.104 118.112 406.67 118.112C406.175 118.112 405.727 118.033 405.326 117.874C404.925 117.711 404.584 117.503 404.304 117.251L404.598 116.775C404.635 116.714 404.68 116.668 404.731 116.635C404.782 116.602 404.848 116.586 404.927 116.586C405.011 116.586 405.1 116.619 405.193 116.684C405.286 116.749 405.398 116.822 405.529 116.901C405.664 116.98 405.828 117.053 406.019 117.118C406.21 117.183 406.448 117.216 406.733 117.216C406.976 117.216 407.188 117.186 407.37 117.125C407.552 117.06 407.704 116.973 407.825 116.866C407.946 116.759 408.035 116.635 408.091 116.495C408.152 116.355 408.182 116.206 408.182 116.047C408.182 115.851 408.128 115.69 408.021 115.564C407.918 115.433 407.781 115.324 407.608 115.235C407.435 115.142 407.237 115.062 407.013 114.997C406.794 114.927 406.567 114.855 406.334 114.78C406.105 114.705 405.879 114.621 405.655 114.528C405.436 114.43 405.24 114.309 405.067 114.164C404.894 114.019 404.754 113.842 404.647 113.632C404.544 113.417 404.493 113.158 404.493 112.855C404.493 112.584 404.549 112.325 404.661 112.078C404.773 111.826 404.936 111.607 405.151 111.42C405.366 111.229 405.629 111.077 405.942 110.965C406.255 110.853 406.612 110.797 407.013 110.797C407.48 110.797 407.897 110.872 408.266 111.021C408.639 111.166 408.961 111.366 409.232 111.623L408.952 112.078ZM415.814 112.169C415.776 112.22 415.739 112.26 415.702 112.288C415.664 112.316 415.613 112.33 415.548 112.33C415.478 112.33 415.401 112.302 415.317 112.246C415.233 112.185 415.128 112.12 415.002 112.05C414.88 111.98 414.729 111.917 414.547 111.861C414.369 111.8 414.15 111.77 413.889 111.77C413.539 111.77 413.231 111.833 412.965 111.959C412.699 112.08 412.475 112.258 412.293 112.491C412.115 112.724 411.98 113.007 411.887 113.338C411.798 113.669 411.754 114.04 411.754 114.451C411.754 114.88 411.803 115.263 411.901 115.599C411.999 115.93 412.136 116.21 412.314 116.439C412.496 116.663 412.713 116.836 412.965 116.957C413.221 117.074 413.508 117.132 413.826 117.132C414.129 117.132 414.379 117.097 414.575 117.027C414.771 116.952 414.932 116.871 415.058 116.782C415.188 116.693 415.296 116.614 415.38 116.544C415.468 116.469 415.555 116.432 415.639 116.432C415.741 116.432 415.821 116.472 415.877 116.551L416.227 117.006C416.073 117.197 415.898 117.361 415.702 117.496C415.506 117.631 415.293 117.746 415.065 117.839C414.841 117.928 414.605 117.993 414.358 118.035C414.11 118.077 413.858 118.098 413.602 118.098C413.158 118.098 412.745 118.016 412.363 117.853C411.985 117.69 411.656 117.454 411.376 117.146C411.096 116.833 410.876 116.451 410.718 115.998C410.559 115.545 410.48 115.03 410.48 114.451C410.48 113.924 410.552 113.436 410.697 112.988C410.846 112.54 411.061 112.155 411.341 111.833C411.625 111.506 411.973 111.252 412.384 111.07C412.799 110.888 413.275 110.797 413.812 110.797C414.311 110.797 414.75 110.879 415.128 111.042C415.51 111.201 415.849 111.427 416.143 111.721L415.814 112.169ZM418.747 112.33C418.971 111.845 419.246 111.467 419.573 111.196C419.9 110.921 420.299 110.783 420.77 110.783C420.919 110.783 421.062 110.799 421.197 110.832C421.337 110.865 421.461 110.916 421.568 110.986L421.477 111.917C421.449 112.034 421.379 112.092 421.267 112.092C421.202 112.092 421.106 112.078 420.98 112.05C420.854 112.022 420.712 112.008 420.553 112.008C420.329 112.008 420.128 112.041 419.951 112.106C419.778 112.171 419.622 112.269 419.482 112.4C419.347 112.526 419.223 112.685 419.111 112.876C419.004 113.063 418.906 113.277 418.817 113.52V118H417.564V110.909H418.278C418.413 110.909 418.507 110.935 418.558 110.986C418.609 111.037 418.644 111.126 418.663 111.252L418.747 112.33ZM423.98 110.909V118H422.734V110.909H423.98ZM424.246 108.683C424.246 108.804 424.22 108.919 424.169 109.026C424.122 109.129 424.057 109.222 423.973 109.306C423.893 109.385 423.798 109.448 423.686 109.495C423.578 109.542 423.464 109.565 423.343 109.565C423.221 109.565 423.107 109.542 423 109.495C422.897 109.448 422.806 109.385 422.727 109.306C422.647 109.222 422.584 109.129 422.538 109.026C422.491 108.919 422.468 108.804 422.468 108.683C422.468 108.562 422.491 108.447 422.538 108.34C422.584 108.228 422.647 108.132 422.727 108.053C422.806 107.969 422.897 107.904 423 107.857C423.107 107.81 423.221 107.787 423.343 107.787C423.464 107.787 423.578 107.81 423.686 107.857C423.798 107.904 423.893 107.969 423.973 108.053C424.057 108.132 424.122 108.228 424.169 108.34C424.22 108.447 424.246 108.562 424.246 108.683ZM427.28 116.292C427.509 116.6 427.758 116.817 428.029 116.943C428.304 117.069 428.605 117.132 428.932 117.132C429.599 117.132 430.11 116.896 430.465 116.425C430.82 115.954 430.997 115.251 430.997 114.318C430.997 113.45 430.838 112.813 430.521 112.407C430.208 111.996 429.76 111.791 429.177 111.791C428.771 111.791 428.416 111.884 428.113 112.071C427.814 112.258 427.537 112.521 427.28 112.862V116.292ZM427.28 111.931C427.579 111.586 427.915 111.31 428.288 111.105C428.666 110.9 429.1 110.797 429.59 110.797C430.005 110.797 430.379 110.876 430.71 111.035C431.046 111.194 431.331 111.425 431.564 111.728C431.797 112.027 431.975 112.391 432.096 112.82C432.222 113.249 432.285 113.732 432.285 114.269C432.285 114.843 432.215 115.366 432.075 115.837C431.935 116.308 431.732 116.712 431.466 117.048C431.205 117.379 430.885 117.638 430.507 117.825C430.129 118.007 429.704 118.098 429.233 118.098C428.766 118.098 428.372 118.012 428.05 117.839C427.733 117.662 427.455 117.412 427.217 117.09L427.154 117.734C427.117 117.911 427.009 118 426.832 118H426.027V107.689H427.28V111.931ZM438.607 113.681C438.607 113.392 438.565 113.128 438.481 112.89C438.402 112.647 438.283 112.44 438.124 112.267C437.97 112.09 437.781 111.954 437.557 111.861C437.333 111.763 437.079 111.714 436.794 111.714C436.197 111.714 435.723 111.889 435.373 112.239C435.028 112.584 434.813 113.065 434.729 113.681H438.607ZM439.615 117.006C439.461 117.193 439.277 117.356 439.062 117.496C438.847 117.631 438.616 117.743 438.369 117.832C438.126 117.921 437.874 117.986 437.613 118.028C437.352 118.075 437.093 118.098 436.836 118.098C436.346 118.098 435.893 118.016 435.478 117.853C435.067 117.685 434.71 117.442 434.407 117.125C434.108 116.803 433.875 116.406 433.707 115.935C433.539 115.464 433.455 114.922 433.455 114.311C433.455 113.816 433.53 113.354 433.679 112.925C433.833 112.496 434.052 112.125 434.337 111.812C434.622 111.495 434.969 111.247 435.38 111.07C435.791 110.888 436.253 110.797 436.766 110.797C437.191 110.797 437.583 110.869 437.942 111.014C438.306 111.154 438.619 111.359 438.88 111.63C439.146 111.896 439.354 112.227 439.503 112.624C439.652 113.016 439.727 113.464 439.727 113.968C439.727 114.164 439.706 114.295 439.664 114.36C439.622 114.425 439.543 114.458 439.426 114.458H434.687C434.701 114.906 434.762 115.296 434.869 115.627C434.981 115.958 435.135 116.236 435.331 116.46C435.527 116.679 435.76 116.845 436.031 116.957C436.302 117.064 436.605 117.118 436.941 117.118C437.254 117.118 437.522 117.083 437.746 117.013C437.975 116.938 438.171 116.859 438.334 116.775C438.497 116.691 438.633 116.614 438.74 116.544C438.852 116.469 438.948 116.432 439.027 116.432C439.13 116.432 439.209 116.472 439.265 116.551L439.615 117.006Z" fill="white"/>
<path opacity="0.671" d="M133.469 116.894L133.462 118H127.281V107.969H133.462V109.075H128.639V112.407H132.545V113.471H128.639V116.894H133.469ZM136.052 111.938C136.206 111.765 136.369 111.609 136.542 111.469C136.714 111.329 136.896 111.21 137.088 111.112C137.284 111.009 137.489 110.932 137.704 110.881C137.923 110.825 138.159 110.797 138.411 110.797C138.798 110.797 139.139 110.862 139.433 110.993C139.731 111.119 139.979 111.301 140.175 111.539C140.375 111.772 140.527 112.055 140.63 112.386C140.732 112.717 140.784 113.084 140.784 113.485V118H139.531V113.485C139.531 112.948 139.407 112.533 139.16 112.239C138.917 111.94 138.546 111.791 138.047 111.791C137.678 111.791 137.333 111.88 137.011 112.057C136.693 112.234 136.399 112.475 136.129 112.778V118H134.876V110.909H135.625C135.802 110.909 135.912 110.995 135.954 111.168L136.052 111.938ZM144.764 118.112C144.204 118.112 143.772 117.956 143.469 117.643C143.17 117.33 143.021 116.88 143.021 116.292V111.952H142.167C142.092 111.952 142.029 111.931 141.978 111.889C141.926 111.842 141.901 111.772 141.901 111.679V111.182L143.063 111.035L143.35 108.844C143.364 108.774 143.394 108.718 143.441 108.676C143.492 108.629 143.557 108.606 143.637 108.606H144.267V111.049H146.318V111.952H144.267V116.208C144.267 116.507 144.339 116.728 144.484 116.873C144.628 117.018 144.815 117.09 145.044 117.09C145.174 117.09 145.286 117.074 145.38 117.041C145.478 117.004 145.562 116.964 145.632 116.922C145.702 116.88 145.76 116.843 145.807 116.81C145.858 116.773 145.902 116.754 145.94 116.754C146.005 116.754 146.063 116.794 146.115 116.873L146.479 117.468C146.264 117.669 146.005 117.827 145.702 117.944C145.398 118.056 145.086 118.112 144.764 118.112ZM152.309 113.681C152.309 113.392 152.267 113.128 152.183 112.89C152.104 112.647 151.985 112.44 151.826 112.267C151.672 112.09 151.483 111.954 151.259 111.861C151.035 111.763 150.781 111.714 150.496 111.714C149.899 111.714 149.425 111.889 149.075 112.239C148.73 112.584 148.515 113.065 148.431 113.681H152.309ZM153.317 117.006C153.163 117.193 152.979 117.356 152.764 117.496C152.55 117.631 152.319 117.743 152.071 117.832C151.829 117.921 151.577 117.986 151.315 118.028C151.054 118.075 150.795 118.098 150.538 118.098C150.048 118.098 149.596 118.016 149.18 117.853C148.77 117.685 148.413 117.442 148.109 117.125C147.811 116.803 147.577 116.406 147.409 115.935C147.241 115.464 147.157 114.922 147.157 114.311C147.157 113.816 147.232 113.354 147.381 112.925C147.535 112.496 147.755 112.125 148.039 111.812C148.324 111.495 148.672 111.247 149.082 111.07C149.493 110.888 149.955 110.797 150.468 110.797C150.893 110.797 151.285 110.869 151.644 111.014C152.008 111.154 152.321 111.359 152.582 111.63C152.848 111.896 153.056 112.227 153.205 112.624C153.355 113.016 153.429 113.464 153.429 113.968C153.429 114.164 153.408 114.295 153.366 114.36C153.324 114.425 153.245 114.458 153.128 114.458H148.389C148.403 114.906 148.464 115.296 148.571 115.627C148.683 115.958 148.837 116.236 149.033 116.46C149.229 116.679 149.463 116.845 149.733 116.957C150.004 117.064 150.307 117.118 150.643 117.118C150.956 117.118 151.224 117.083 151.448 117.013C151.677 116.938 151.873 116.859 152.036 116.775C152.2 116.691 152.335 116.614 152.442 116.544C152.554 116.469 152.65 116.432 152.729 116.432C152.832 116.432 152.911 116.472 152.967 116.551L153.317 117.006ZM156.143 112.33C156.367 111.845 156.642 111.467 156.969 111.196C157.295 110.921 157.694 110.783 158.166 110.783C158.315 110.783 158.457 110.799 158.593 110.832C158.733 110.865 158.856 110.916 158.964 110.986L158.873 111.917C158.845 112.034 158.775 112.092 158.663 112.092C158.597 112.092 158.502 112.078 158.376 112.05C158.25 112.022 158.107 112.008 157.949 112.008C157.725 112.008 157.524 112.041 157.347 112.106C157.174 112.171 157.018 112.269 156.878 112.4C156.742 112.526 156.619 112.685 156.507 112.876C156.399 113.063 156.301 113.277 156.213 113.52V118H154.96V110.909H155.674C155.809 110.909 155.902 110.935 155.954 110.986C156.005 111.037 156.04 111.126 156.059 111.252L156.143 112.33ZM166.854 114.003V118H165.496V114.003L161.821 107.969H163.011C163.132 107.969 163.228 107.999 163.298 108.06C163.368 108.116 163.428 108.191 163.48 108.284L165.776 112.183C165.86 112.346 165.937 112.5 166.007 112.645C166.077 112.785 166.137 112.927 166.189 113.072C166.24 112.927 166.298 112.785 166.364 112.645C166.429 112.5 166.501 112.346 166.581 112.183L168.87 108.284C168.912 108.205 168.97 108.132 169.045 108.067C169.119 108.002 169.215 107.969 169.332 107.969H170.529L166.854 114.003ZM172.988 110.797C173.506 110.797 173.972 110.883 174.388 111.056C174.803 111.229 175.158 111.474 175.452 111.791C175.746 112.108 175.97 112.493 176.124 112.946C176.282 113.394 176.362 113.896 176.362 114.451C176.362 115.011 176.282 115.515 176.124 115.963C175.97 116.411 175.746 116.794 175.452 117.111C175.158 117.428 174.803 117.673 174.388 117.846C173.972 118.014 173.506 118.098 172.988 118.098C172.465 118.098 171.994 118.014 171.574 117.846C171.158 117.673 170.804 117.428 170.51 117.111C170.216 116.794 169.989 116.411 169.831 115.963C169.677 115.515 169.6 115.011 169.6 114.451C169.6 113.896 169.677 113.394 169.831 112.946C169.989 112.493 170.216 112.108 170.51 111.791C170.804 111.474 171.158 111.229 171.574 111.056C171.994 110.883 172.465 110.797 172.988 110.797ZM172.988 117.125C173.688 117.125 174.21 116.892 174.556 116.425C174.901 115.954 175.074 115.298 175.074 114.458C175.074 113.613 174.901 112.955 174.556 112.484C174.21 112.013 173.688 111.777 172.988 111.777C172.633 111.777 172.323 111.838 172.057 111.959C171.795 112.08 171.576 112.255 171.399 112.484C171.226 112.713 171.095 112.995 171.007 113.331C170.923 113.662 170.881 114.038 170.881 114.458C170.881 115.298 171.053 115.954 171.399 116.425C171.749 116.892 172.278 117.125 172.988 117.125ZM183.773 110.909V118H183.031C182.854 118 182.742 117.914 182.695 117.741L182.597 116.978C182.289 117.319 181.944 117.594 181.561 117.804C181.178 118.009 180.74 118.112 180.245 118.112C179.858 118.112 179.515 118.049 179.216 117.923C178.922 117.792 178.675 117.61 178.474 117.377C178.273 117.144 178.122 116.861 178.019 116.53C177.921 116.199 177.872 115.832 177.872 115.431V110.909H179.118V115.431C179.118 115.968 179.239 116.383 179.482 116.677C179.729 116.971 180.105 117.118 180.609 117.118C180.978 117.118 181.321 117.032 181.638 116.859C181.96 116.682 182.256 116.439 182.527 116.131V110.909H183.773ZM186.932 112.33C187.156 111.845 187.431 111.467 187.758 111.196C188.084 110.921 188.483 110.783 188.955 110.783C189.104 110.783 189.246 110.799 189.382 110.832C189.522 110.865 189.645 110.916 189.753 110.986L189.662 111.917C189.634 112.034 189.564 112.092 189.452 112.092C189.386 112.092 189.291 112.078 189.165 112.05C189.039 112.022 188.896 112.008 188.738 112.008C188.514 112.008 188.313 112.041 188.136 112.106C187.963 112.171 187.807 112.269 187.667 112.4C187.531 112.526 187.408 112.685 187.296 112.876C187.188 113.063 187.09 113.277 187.002 113.52V118H185.749V110.909H186.463C186.598 110.909 186.691 110.935 186.743 110.986C186.794 111.037 186.829 111.126 186.848 111.252L186.932 112.33ZM200.612 116.894L200.605 118H194.424V107.969H200.605V109.075H195.782V112.407H199.688V113.471H195.782V116.894H200.612ZM202.018 118V110.909H202.767C202.945 110.909 203.054 110.995 203.096 111.168L203.187 111.896C203.449 111.574 203.743 111.31 204.069 111.105C204.396 110.9 204.774 110.797 205.203 110.797C205.679 110.797 206.064 110.93 206.358 111.196C206.657 111.462 206.872 111.821 207.002 112.274C207.105 112.017 207.236 111.796 207.394 111.609C207.558 111.422 207.74 111.268 207.94 111.147C208.141 111.026 208.353 110.937 208.577 110.881C208.806 110.825 209.037 110.797 209.27 110.797C209.644 110.797 209.975 110.858 210.264 110.979C210.558 111.096 210.806 111.268 211.006 111.497C211.212 111.726 211.368 112.008 211.475 112.344C211.583 112.675 211.636 113.056 211.636 113.485V118H210.383V113.485C210.383 112.93 210.262 112.51 210.019 112.225C209.777 111.936 209.427 111.791 208.969 111.791C208.764 111.791 208.568 111.828 208.381 111.903C208.199 111.973 208.038 112.078 207.898 112.218C207.758 112.358 207.646 112.535 207.562 112.75C207.483 112.96 207.443 113.205 207.443 113.485V118H206.19V113.485C206.19 112.916 206.076 112.491 205.847 112.211C205.619 111.931 205.285 111.791 204.846 111.791C204.538 111.791 204.254 111.875 203.992 112.043C203.731 112.206 203.491 112.43 203.271 112.715V118H202.018ZM217.373 114.808C216.799 114.827 216.309 114.873 215.903 114.948C215.502 115.018 215.173 115.111 214.916 115.228C214.664 115.345 214.48 115.482 214.363 115.641C214.251 115.8 214.195 115.977 214.195 116.173C214.195 116.36 214.225 116.521 214.286 116.656C214.347 116.791 214.428 116.903 214.531 116.992C214.638 117.076 214.762 117.139 214.902 117.181C215.047 117.218 215.201 117.237 215.364 117.237C215.583 117.237 215.784 117.216 215.966 117.174C216.148 117.127 216.318 117.062 216.477 116.978C216.64 116.894 216.794 116.794 216.939 116.677C217.088 116.56 217.233 116.427 217.373 116.278V114.808ZM213.348 111.91C213.74 111.532 214.162 111.25 214.615 111.063C215.068 110.876 215.569 110.783 216.12 110.783C216.517 110.783 216.869 110.848 217.177 110.979C217.485 111.11 217.744 111.292 217.954 111.525C218.164 111.758 218.323 112.041 218.43 112.372C218.537 112.703 218.591 113.067 218.591 113.464V118H218.038C217.917 118 217.823 117.981 217.758 117.944C217.693 117.902 217.641 117.823 217.604 117.706L217.464 117.034C217.277 117.207 217.095 117.361 216.918 117.496C216.741 117.627 216.554 117.739 216.358 117.832C216.162 117.921 215.952 117.988 215.728 118.035C215.509 118.086 215.264 118.112 214.993 118.112C214.718 118.112 214.459 118.075 214.216 118C213.973 117.921 213.761 117.804 213.579 117.65C213.402 117.496 213.259 117.302 213.152 117.069C213.049 116.831 212.998 116.551 212.998 116.229C212.998 115.949 213.075 115.681 213.229 115.424C213.383 115.163 213.633 114.932 213.978 114.731C214.323 114.53 214.774 114.367 215.329 114.241C215.884 114.11 216.566 114.036 217.373 114.017V113.464C217.373 112.913 217.254 112.498 217.016 112.218C216.778 111.933 216.43 111.791 215.973 111.791C215.665 111.791 215.406 111.831 215.196 111.91C214.991 111.985 214.811 112.071 214.657 112.169C214.508 112.262 214.377 112.349 214.265 112.428C214.158 112.503 214.05 112.54 213.943 112.54C213.859 112.54 213.787 112.519 213.726 112.477C213.665 112.43 213.614 112.374 213.572 112.309L213.348 111.91ZM221.805 110.909V118H220.559V110.909H221.805ZM222.071 108.683C222.071 108.804 222.045 108.919 221.994 109.026C221.947 109.129 221.882 109.222 221.798 109.306C221.719 109.385 221.623 109.448 221.511 109.495C221.404 109.542 221.289 109.565 221.168 109.565C221.047 109.565 220.932 109.542 220.825 109.495C220.722 109.448 220.631 109.385 220.552 109.306C220.473 109.222 220.41 109.129 220.363 109.026C220.316 108.919 220.293 108.804 220.293 108.683C220.293 108.562 220.316 108.447 220.363 108.34C220.41 108.228 220.473 108.132 220.552 108.053C220.631 107.969 220.722 107.904 220.825 107.857C220.932 107.81 221.047 107.787 221.168 107.787C221.289 107.787 221.404 107.81 221.511 107.857C221.623 107.904 221.719 107.969 221.798 108.053C221.882 108.132 221.947 108.228 221.994 108.34C222.045 108.447 222.071 108.562 222.071 108.683ZM225.14 107.689V118H223.894V107.689H225.14Z" fill="#222224"/>
<path d="M222.77 14.804C222.674 14.972 222.57 15.096 222.458 15.176C222.354 15.248 222.222 15.284 222.062 15.284C221.894 15.284 221.71 15.224 221.51 15.104C221.318 14.976 221.086 14.836 220.814 14.684C220.542 14.532 220.222 14.396 219.854 14.276C219.494 14.148 219.066 14.084 218.57 14.084C218.122 14.084 217.73 14.14 217.394 14.252C217.058 14.356 216.774 14.504 216.542 14.696C216.318 14.888 216.15 15.12 216.038 15.392C215.926 15.656 215.87 15.948 215.87 16.268C215.87 16.676 215.982 17.016 216.206 17.288C216.438 17.56 216.742 17.792 217.118 17.984C217.494 18.176 217.922 18.348 218.402 18.5C218.882 18.652 219.374 18.816 219.878 18.992C220.382 19.16 220.874 19.36 221.354 19.592C221.834 19.816 222.262 20.104 222.638 20.456C223.014 20.8 223.314 21.224 223.538 21.728C223.77 22.232 223.886 22.844 223.886 23.564C223.886 24.348 223.75 25.084 223.478 25.772C223.214 26.452 222.822 27.048 222.302 27.56C221.79 28.064 221.162 28.464 220.418 28.76C219.674 29.048 218.822 29.192 217.862 29.192C217.31 29.192 216.766 29.136 216.23 29.024C215.694 28.92 215.178 28.768 214.682 28.568C214.194 28.368 213.734 28.128 213.302 27.848C212.87 27.568 212.486 27.256 212.15 26.912L213.098 25.364C213.178 25.252 213.282 25.16 213.41 25.088C213.538 25.008 213.674 24.968 213.818 24.968C214.018 24.968 214.234 25.052 214.466 25.22C214.698 25.38 214.974 25.56 215.294 25.76C215.614 25.96 215.986 26.144 216.41 26.312C216.842 26.472 217.358 26.552 217.958 26.552C218.878 26.552 219.59 26.336 220.094 25.904C220.598 25.464 220.85 24.836 220.85 24.02C220.85 23.564 220.734 23.192 220.502 22.904C220.278 22.616 219.978 22.376 219.602 22.184C219.226 21.984 218.798 21.816 218.318 21.68C217.838 21.544 217.35 21.396 216.854 21.236C216.358 21.076 215.87 20.884 215.39 20.66C214.91 20.436 214.482 20.144 214.106 19.784C213.73 19.424 213.426 18.976 213.194 18.44C212.97 17.896 212.858 17.228 212.858 16.436C212.858 15.804 212.982 15.188 213.23 14.588C213.486 13.988 213.854 13.456 214.334 12.992C214.814 12.528 215.406 12.156 216.11 11.876C216.814 11.596 217.622 11.456 218.534 11.456C219.558 11.456 220.502 11.616 221.366 11.936C222.23 12.256 222.966 12.704 223.574 13.28L222.77 14.804ZM233.686 26.396C234.31 26.396 234.866 26.292 235.354 26.084C235.85 25.876 236.266 25.584 236.602 25.208C236.938 24.832 237.194 24.376 237.37 23.84C237.554 23.304 237.646 22.704 237.646 22.04V11.648H240.874V22.04C240.874 23.072 240.706 24.028 240.37 24.908C240.042 25.78 239.566 26.536 238.942 27.176C238.326 27.808 237.574 28.304 236.686 28.664C235.798 29.016 234.798 29.192 233.686 29.192C232.566 29.192 231.562 29.016 230.674 28.664C229.786 28.304 229.03 27.808 228.406 27.176C227.79 26.536 227.314 25.78 226.978 24.908C226.65 24.028 226.486 23.072 226.486 22.04V11.648H229.714V22.028C229.714 22.692 229.802 23.292 229.978 23.828C230.162 24.364 230.422 24.824 230.758 25.208C231.102 25.584 231.518 25.876 232.006 26.084C232.502 26.292 233.062 26.396 233.686 26.396ZM251.006 26.48C251.606 26.48 252.11 26.408 252.518 26.264C252.926 26.12 253.25 25.928 253.49 25.688C253.738 25.448 253.914 25.168 254.018 24.848C254.13 24.528 254.186 24.188 254.186 23.828C254.186 23.452 254.126 23.116 254.006 22.82C253.886 22.516 253.698 22.26 253.442 22.052C253.186 21.836 252.854 21.672 252.446 21.56C252.046 21.448 251.562 21.392 250.994 21.392H247.742V26.48H251.006ZM247.742 14.144V19.16H250.31C251.414 19.16 252.246 18.96 252.806 18.56C253.374 18.16 253.658 17.524 253.658 16.652C253.658 15.748 253.402 15.104 252.89 14.72C252.378 14.336 251.578 14.144 250.49 14.144H247.742ZM250.49 11.648C251.626 11.648 252.598 11.756 253.406 11.972C254.214 12.188 254.874 12.496 255.386 12.896C255.906 13.296 256.286 13.78 256.526 14.348C256.766 14.916 256.886 15.556 256.886 16.268C256.886 16.676 256.826 17.068 256.706 17.444C256.586 17.812 256.398 18.16 256.142 18.488C255.894 18.808 255.574 19.1 255.182 19.364C254.798 19.628 254.338 19.852 253.802 20.036C256.186 20.572 257.378 21.86 257.378 23.9C257.378 24.636 257.238 25.316 256.958 25.94C256.678 26.564 256.27 27.104 255.734 27.56C255.198 28.008 254.538 28.36 253.754 28.616C252.97 28.872 252.074 29 251.066 29H244.514V11.648H250.49ZM269.551 14.804C269.455 14.972 269.351 15.096 269.239 15.176C269.135 15.248 269.003 15.284 268.843 15.284C268.675 15.284 268.491 15.224 268.291 15.104C268.099 14.976 267.867 14.836 267.595 14.684C267.323 14.532 267.003 14.396 266.635 14.276C266.275 14.148 265.847 14.084 265.351 14.084C264.903 14.084 264.511 14.14 264.175 14.252C263.839 14.356 263.555 14.504 263.323 14.696C263.099 14.888 262.931 15.12 262.819 15.392C262.707 15.656 262.651 15.948 262.651 16.268C262.651 16.676 262.763 17.016 262.987 17.288C263.219 17.56 263.523 17.792 263.899 17.984C264.275 18.176 264.703 18.348 265.183 18.5C265.663 18.652 266.155 18.816 266.659 18.992C267.163 19.16 267.655 19.36 268.135 19.592C268.615 19.816 269.043 20.104 269.419 20.456C269.795 20.8 270.095 21.224 270.319 21.728C270.551 22.232 270.667 22.844 270.667 23.564C270.667 24.348 270.531 25.084 270.259 25.772C269.995 26.452 269.603 27.048 269.083 27.56C268.571 28.064 267.943 28.464 267.199 28.76C266.455 29.048 265.603 29.192 264.643 29.192C264.091 29.192 263.547 29.136 263.011 29.024C262.475 28.92 261.959 28.768 261.463 28.568C260.975 28.368 260.515 28.128 260.083 27.848C259.651 27.568 259.267 27.256 258.931 26.912L259.879 25.364C259.959 25.252 260.063 25.16 260.191 25.088C260.319 25.008 260.455 24.968 260.599 24.968C260.799 24.968 261.015 25.052 261.247 25.22C261.479 25.38 261.755 25.56 262.075 25.76C262.395 25.96 262.767 26.144 263.191 26.312C263.623 26.472 264.139 26.552 264.739 26.552C265.659 26.552 266.371 26.336 266.875 25.904C267.379 25.464 267.631 24.836 267.631 24.02C267.631 23.564 267.515 23.192 267.283 22.904C267.059 22.616 266.759 22.376 266.383 22.184C266.007 21.984 265.579 21.816 265.099 21.68C264.619 21.544 264.131 21.396 263.635 21.236C263.139 21.076 262.651 20.884 262.171 20.66C261.691 20.436 261.263 20.144 260.887 19.784C260.511 19.424 260.207 18.976 259.975 18.44C259.751 17.896 259.639 17.228 259.639 16.436C259.639 15.804 259.763 15.188 260.011 14.588C260.267 13.988 260.635 13.456 261.115 12.992C261.595 12.528 262.187 12.156 262.891 11.876C263.595 11.596 264.403 11.456 265.315 11.456C266.339 11.456 267.283 11.616 268.147 11.936C269.011 12.256 269.747 12.704 270.355 13.28L269.551 14.804ZM285.399 24.908C285.575 24.908 285.731 24.976 285.867 25.112L287.139 26.492C286.435 27.364 285.567 28.032 284.535 28.496C283.511 28.96 282.279 29.192 280.839 29.192C279.551 29.192 278.391 28.972 277.359 28.532C276.335 28.092 275.459 27.48 274.731 26.696C274.003 25.912 273.443 24.976 273.051 23.888C272.667 22.8 272.475 21.612 272.475 20.324C272.475 19.02 272.683 17.828 273.099 16.748C273.515 15.66 274.099 14.724 274.851 13.94C275.611 13.156 276.515 12.548 277.563 12.116C278.611 11.676 279.771 11.456 281.043 11.456C282.307 11.456 283.427 11.664 284.403 12.08C285.387 12.496 286.223 13.04 286.911 13.712L285.831 15.212C285.767 15.308 285.683 15.392 285.579 15.464C285.483 15.536 285.347 15.572 285.171 15.572C285.051 15.572 284.927 15.54 284.799 15.476C284.671 15.404 284.531 15.32 284.379 15.224C284.227 15.12 284.051 15.008 283.851 14.888C283.651 14.768 283.419 14.66 283.155 14.564C282.891 14.46 282.583 14.376 282.231 14.312C281.887 14.24 281.487 14.204 281.031 14.204C280.255 14.204 279.543 14.344 278.895 14.624C278.255 14.896 277.703 15.296 277.239 15.824C276.775 16.344 276.415 16.984 276.159 17.744C275.903 18.496 275.775 19.356 275.775 20.324C275.775 21.3 275.911 22.168 276.183 22.928C276.463 23.688 276.839 24.328 277.311 24.848C277.783 25.368 278.339 25.768 278.979 26.048C279.619 26.32 280.307 26.456 281.043 26.456C281.483 26.456 281.879 26.432 282.231 26.384C282.591 26.336 282.919 26.26 283.215 26.156C283.519 26.052 283.803 25.92 284.067 25.76C284.339 25.592 284.607 25.388 284.871 25.148C284.951 25.076 285.035 25.02 285.123 24.98C285.211 24.932 285.303 24.908 285.399 24.908ZM294.594 19.904C295.202 19.904 295.73 19.828 296.178 19.676C296.634 19.524 297.006 19.316 297.294 19.052C297.59 18.78 297.81 18.46 297.954 18.092C298.098 17.724 298.17 17.32 298.17 16.88C298.17 16 297.878 15.324 297.294 14.852C296.718 14.38 295.834 14.144 294.642 14.144H292.578V19.904H294.594ZM302.898 29H299.982C299.43 29 299.03 28.784 298.782 28.352L295.134 22.796C294.998 22.588 294.846 22.44 294.678 22.352C294.518 22.264 294.278 22.22 293.958 22.22H292.578V29H289.35V11.648H294.642C295.818 11.648 296.826 11.772 297.666 12.02C298.514 12.26 299.206 12.6 299.742 13.04C300.286 13.48 300.686 14.008 300.942 14.624C301.198 15.232 301.326 15.904 301.326 16.64C301.326 17.224 301.238 17.776 301.062 18.296C300.894 18.816 300.646 19.288 300.318 19.712C299.998 20.136 299.598 20.508 299.118 20.828C298.646 21.148 298.106 21.4 297.498 21.584C297.706 21.704 297.898 21.848 298.074 22.016C298.25 22.176 298.41 22.368 298.554 22.592L302.898 29ZM308.012 29H304.772V11.648H308.012V29ZM318.389 26.48C318.989 26.48 319.493 26.408 319.901 26.264C320.309 26.12 320.633 25.928 320.873 25.688C321.121 25.448 321.297 25.168 321.401 24.848C321.513 24.528 321.569 24.188 321.569 23.828C321.569 23.452 321.509 23.116 321.389 22.82C321.269 22.516 321.081 22.26 320.825 22.052C320.569 21.836 320.237 21.672 319.829 21.56C319.429 21.448 318.945 21.392 318.377 21.392H315.125V26.48H318.389ZM315.125 14.144V19.16H317.693C318.797 19.16 319.629 18.96 320.189 18.56C320.757 18.16 321.041 17.524 321.041 16.652C321.041 15.748 320.785 15.104 320.273 14.72C319.761 14.336 318.961 14.144 317.873 14.144H315.125ZM317.873 11.648C319.009 11.648 319.981 11.756 320.789 11.972C321.597 12.188 322.257 12.496 322.769 12.896C323.289 13.296 323.669 13.78 323.909 14.348C324.149 14.916 324.269 15.556 324.269 16.268C324.269 16.676 324.209 17.068 324.089 17.444C323.969 17.812 323.781 18.16 323.525 18.488C323.277 18.808 322.957 19.1 322.565 19.364C322.181 19.628 321.721 19.852 321.185 20.036C323.569 20.572 324.761 21.86 324.761 23.9C324.761 24.636 324.621 25.316 324.341 25.94C324.061 26.564 323.653 27.104 323.117 27.56C322.581 28.008 321.921 28.36 321.137 28.616C320.353 28.872 319.457 29 318.449 29H311.897V11.648H317.873ZM330.934 14.216V19.028H337.006V21.512H330.934V26.42H338.638V29H327.694V11.648H338.638V14.216H330.934ZM107.764 46.525V51.034H113.065V52.456H107.764V58H106.018V45.103H113.965V46.525H107.764ZM127.989 51.556C127.989 52.522 127.836 53.41 127.53 54.22C127.224 55.024 126.792 55.717 126.234 56.299C125.676 56.881 125.004 57.334 124.218 57.658C123.438 57.976 122.574 58.135 121.626 58.135C120.678 58.135 119.814 57.976 119.034 57.658C118.254 57.334 117.585 56.881 117.027 56.299C116.469 55.717 116.037 55.024 115.731 54.22C115.425 53.41 115.272 52.522 115.272 51.556C115.272 50.59 115.425 49.705 115.731 48.901C116.037 48.091 116.469 47.395 117.027 46.813C117.585 46.225 118.254 45.769 119.034 45.445C119.814 45.121 120.678 44.959 121.626 44.959C122.574 44.959 123.438 45.121 124.218 45.445C125.004 45.769 125.676 46.225 126.234 46.813C126.792 47.395 127.224 48.091 127.53 48.901C127.836 49.705 127.989 50.59 127.989 51.556ZM126.198 51.556C126.198 50.764 126.09 50.053 125.874 49.423C125.658 48.793 125.352 48.262 124.956 47.83C124.56 47.392 124.08 47.056 123.516 46.822C122.952 46.588 122.322 46.471 121.626 46.471C120.936 46.471 120.309 46.588 119.745 46.822C119.181 47.056 118.698 47.392 118.296 47.83C117.9 48.262 117.594 48.793 117.378 49.423C117.162 50.053 117.054 50.764 117.054 51.556C117.054 52.348 117.162 53.059 117.378 53.689C117.594 54.313 117.9 54.844 118.296 55.282C118.698 55.714 119.181 56.047 119.745 56.281C120.309 56.509 120.936 56.623 121.626 56.623C122.322 56.623 122.952 56.509 123.516 56.281C124.08 56.047 124.56 55.714 124.956 55.282C125.352 54.844 125.658 54.313 125.874 53.689C126.09 53.059 126.198 52.348 126.198 51.556ZM134.06 51.349C134.564 51.349 135.008 51.289 135.392 51.169C135.782 51.043 136.106 50.869 136.364 50.647C136.628 50.419 136.826 50.149 136.958 49.837C137.09 49.525 137.156 49.18 137.156 48.802C137.156 48.034 136.904 47.455 136.4 47.065C135.896 46.675 135.14 46.48 134.132 46.48H132.224V51.349H134.06ZM140.018 58H138.47C138.152 58 137.918 57.877 137.768 57.631L134.42 53.023C134.318 52.879 134.207 52.777 134.087 52.717C133.973 52.651 133.793 52.618 133.547 52.618H132.224V58H130.487V45.103H134.132C134.948 45.103 135.653 45.187 136.247 45.355C136.841 45.517 137.33 45.754 137.714 46.066C138.104 46.378 138.392 46.756 138.578 47.2C138.764 47.638 138.857 48.13 138.857 48.676C138.857 49.132 138.785 49.558 138.641 49.954C138.497 50.35 138.287 50.707 138.011 51.025C137.741 51.337 137.408 51.604 137.012 51.826C136.622 52.048 136.178 52.216 135.68 52.33C135.902 52.456 136.094 52.639 136.256 52.879L140.018 58ZM158.293 51.556C158.293 52.522 158.14 53.41 157.834 54.22C157.528 55.024 157.096 55.717 156.538 56.299C155.98 56.881 155.308 57.334 154.522 57.658C153.742 57.976 152.878 58.135 151.93 58.135C150.982 58.135 150.118 57.976 149.338 57.658C148.558 57.334 147.889 56.881 147.331 56.299C146.773 55.717 146.341 55.024 146.035 54.22C145.729 53.41 145.576 52.522 145.576 51.556C145.576 50.59 145.729 49.705 146.035 48.901C146.341 48.091 146.773 47.395 147.331 46.813C147.889 46.225 148.558 45.769 149.338 45.445C150.118 45.121 150.982 44.959 151.93 44.959C152.878 44.959 153.742 45.121 154.522 45.445C155.308 45.769 155.98 46.225 156.538 46.813C157.096 47.395 157.528 48.091 157.834 48.901C158.14 49.705 158.293 50.59 158.293 51.556ZM156.502 51.556C156.502 50.764 156.394 50.053 156.178 49.423C155.962 48.793 155.656 48.262 155.26 47.83C154.864 47.392 154.384 47.056 153.82 46.822C153.256 46.588 152.626 46.471 151.93 46.471C151.24 46.471 150.613 46.588 150.049 46.822C149.485 47.056 149.002 47.392 148.6 47.83C148.204 48.262 147.898 48.793 147.682 49.423C147.466 50.053 147.358 50.764 147.358 51.556C147.358 52.348 147.466 53.059 147.682 53.689C147.898 54.313 148.204 54.844 148.6 55.282C149.002 55.714 149.485 56.047 150.049 56.281C150.613 56.509 151.24 56.623 151.93 56.623C152.626 56.623 153.256 56.509 153.82 56.281C154.384 56.047 154.864 55.714 155.26 55.282C155.656 54.844 155.962 54.313 156.178 53.689C156.394 53.059 156.502 52.348 156.502 51.556ZM165.769 56.614C166.303 56.614 166.78 56.524 167.2 56.344C167.62 56.164 167.974 55.912 168.262 55.588C168.556 55.264 168.778 54.877 168.928 54.427C169.084 53.977 169.162 53.482 169.162 52.942V45.103H170.899V52.942C170.899 53.686 170.779 54.376 170.539 55.012C170.305 55.648 169.966 56.2 169.522 56.668C169.084 57.13 168.547 57.493 167.911 57.757C167.275 58.021 166.561 58.153 165.769 58.153C164.977 58.153 164.263 58.021 163.627 57.757C162.991 57.493 162.451 57.13 162.007 56.668C161.563 56.2 161.221 55.648 160.981 55.012C160.747 54.376 160.63 53.686 160.63 52.942V45.103H162.367V52.933C162.367 53.473 162.442 53.968 162.592 54.418C162.748 54.868 162.97 55.255 163.258 55.579C163.552 55.903 163.909 56.158 164.329 56.344C164.755 56.524 165.235 56.614 165.769 56.614ZM177.601 51.349C178.105 51.349 178.549 51.289 178.933 51.169C179.323 51.043 179.647 50.869 179.905 50.647C180.169 50.419 180.367 50.149 180.499 49.837C180.631 49.525 180.697 49.18 180.697 48.802C180.697 48.034 180.445 47.455 179.941 47.065C179.437 46.675 178.681 46.48 177.673 46.48H175.765V51.349H177.601ZM183.559 58H182.011C181.693 58 181.459 57.877 181.309 57.631L177.961 53.023C177.859 52.879 177.748 52.777 177.628 52.717C177.514 52.651 177.334 52.618 177.088 52.618H175.765V58H174.028V45.103H177.673C178.489 45.103 179.194 45.187 179.788 45.355C180.382 45.517 180.871 45.754 181.255 46.066C181.645 46.378 181.933 46.756 182.119 47.2C182.305 47.638 182.398 48.13 182.398 48.676C182.398 49.132 182.326 49.558 182.182 49.954C182.038 50.35 181.828 50.707 181.552 51.025C181.282 51.337 180.949 51.604 180.553 51.826C180.163 52.048 179.719 52.216 179.221 52.33C179.443 52.456 179.635 52.639 179.797 52.879L183.559 58ZM200.367 45.103V58H199.494C199.356 58 199.239 57.976 199.143 57.928C199.053 57.88 198.963 57.799 198.873 57.685L191.412 47.965C191.424 48.115 191.433 48.262 191.439 48.406C191.445 48.55 191.448 48.685 191.448 48.811V58H189.918V45.103H190.818C190.896 45.103 190.962 45.109 191.016 45.121C191.07 45.127 191.118 45.142 191.16 45.166C191.202 45.184 191.244 45.214 191.286 45.256C191.328 45.292 191.373 45.34 191.421 45.4L198.882 55.111C198.87 54.955 198.858 54.805 198.846 54.661C198.84 54.511 198.837 54.37 198.837 54.238V45.103H200.367ZM211.621 56.578L211.612 58H203.665V45.103H211.612V46.525H205.411V50.809H210.433V52.177H205.411V56.578H211.621ZM230.766 45.103L226.743 58H225.177L221.91 48.163C221.88 48.067 221.85 47.965 221.82 47.857C221.796 47.749 221.769 47.635 221.739 47.515C221.709 47.635 221.679 47.749 221.649 47.857C221.619 47.965 221.589 48.067 221.559 48.163L218.274 58H216.708L212.685 45.103H214.134C214.29 45.103 214.419 45.142 214.521 45.22C214.629 45.298 214.698 45.397 214.728 45.517L217.392 54.481C217.434 54.643 217.473 54.817 217.509 55.003C217.551 55.189 217.59 55.387 217.626 55.597C217.668 55.387 217.71 55.189 217.752 55.003C217.8 54.811 217.851 54.637 217.905 54.481L220.938 45.517C220.974 45.415 221.043 45.322 221.145 45.238C221.253 45.148 221.382 45.103 221.532 45.103H222.036C222.192 45.103 222.318 45.142 222.414 45.22C222.51 45.298 222.582 45.397 222.63 45.517L225.654 54.481C225.708 54.637 225.756 54.805 225.798 54.985C225.846 55.165 225.891 55.354 225.933 55.552C225.963 55.354 225.996 55.165 226.032 54.985C226.068 54.805 226.107 54.637 226.149 54.481L228.822 45.517C228.852 45.409 228.918 45.313 229.02 45.229C229.128 45.145 229.257 45.103 229.407 45.103H230.766ZM240.003 56.533V58H232.686V45.103H234.423V56.533H240.003ZM249.888 56.578L249.879 58H241.932V45.103H249.879V46.525H243.678V50.809H248.7V52.177H243.678V56.578H249.888ZM261.042 46.57H256.866V58H255.129V46.57H250.944V45.103H261.042V46.57ZM271.677 46.57H267.501V58H265.764V46.57H261.579V45.103H271.677V46.57ZM281.546 56.578L281.537 58H273.59V45.103H281.537V46.525H275.336V50.809H280.358V52.177H275.336V56.578H281.546ZM287.552 51.349C288.056 51.349 288.5 51.289 288.884 51.169C289.274 51.043 289.598 50.869 289.856 50.647C290.12 50.419 290.318 50.149 290.45 49.837C290.582 49.525 290.648 49.18 290.648 48.802C290.648 48.034 290.396 47.455 289.892 47.065C289.388 46.675 288.632 46.48 287.624 46.48H285.716V51.349H287.552ZM293.51 58H291.962C291.644 58 291.41 57.877 291.26 57.631L287.912 53.023C287.81 52.879 287.699 52.777 287.579 52.717C287.465 52.651 287.285 52.618 287.039 52.618H285.716V58H283.979V45.103H287.624C288.44 45.103 289.145 45.187 289.739 45.355C290.333 45.517 290.822 45.754 291.206 46.066C291.596 46.378 291.884 46.756 292.07 47.2C292.256 47.638 292.349 48.13 292.349 48.676C292.349 49.132 292.277 49.558 292.133 49.954C291.989 50.35 291.779 50.707 291.503 51.025C291.233 51.337 290.9 51.604 290.504 51.826C290.114 52.048 289.67 52.216 289.172 52.33C289.394 52.456 289.586 52.639 289.748 52.879L293.51 58ZM306.121 53.212L304.096 47.965C304.036 47.809 303.973 47.629 303.907 47.425C303.841 47.215 303.778 46.993 303.718 46.759C303.592 47.245 303.463 47.65 303.331 47.974L301.306 53.212H306.121ZM309.757 58H308.407C308.251 58 308.125 57.961 308.029 57.883C307.933 57.805 307.861 57.706 307.813 57.586L306.607 54.472H300.82L299.614 57.586C299.578 57.694 299.509 57.79 299.407 57.874C299.305 57.958 299.179 58 299.029 58H297.679L302.836 45.103H304.6L309.757 58ZM321.903 45.103V58H321.03C320.892 58 320.775 57.976 320.679 57.928C320.589 57.88 320.499 57.799 320.409 57.685L312.948 47.965C312.96 48.115 312.969 48.262 312.975 48.406C312.981 48.55 312.984 48.685 312.984 48.811V58H311.454V45.103H312.354C312.432 45.103 312.498 45.109 312.552 45.121C312.606 45.127 312.654 45.142 312.696 45.166C312.738 45.184 312.78 45.214 312.822 45.256C312.864 45.292 312.909 45.34 312.957 45.4L320.418 55.111C320.406 54.955 320.394 54.805 320.382 54.661C320.376 54.511 320.373 54.37 320.373 54.238V45.103H321.903ZM336.378 51.556C336.378 52.522 336.225 53.401 335.919 54.193C335.613 54.985 335.181 55.663 334.623 56.227C334.065 56.791 333.393 57.229 332.607 57.541C331.827 57.847 330.963 58 330.015 58H325.2V45.103H330.015C330.963 45.103 331.827 45.259 332.607 45.571C333.393 45.877 334.065 46.315 334.623 46.885C335.181 47.449 335.613 48.127 335.919 48.919C336.225 49.711 336.378 50.59 336.378 51.556ZM334.587 51.556C334.587 50.764 334.479 50.056 334.263 49.432C334.047 48.808 333.741 48.28 333.345 47.848C332.949 47.416 332.469 47.086 331.905 46.858C331.341 46.63 330.711 46.516 330.015 46.516H326.946V56.587H330.015C330.711 56.587 331.341 56.473 331.905 56.245C332.469 56.017 332.949 55.69 333.345 55.264C333.741 54.832 334.047 54.304 334.263 53.68C334.479 53.056 334.587 52.348 334.587 51.556ZM347.306 51.79C347.804 51.79 348.242 51.724 348.62 51.592C349.004 51.46 349.325 51.277 349.583 51.043C349.847 50.803 350.045 50.518 350.177 50.188C350.309 49.858 350.375 49.495 350.375 49.099C350.375 48.277 350.12 47.635 349.61 47.173C349.106 46.711 348.338 46.48 347.306 46.48H345.236V51.79H347.306ZM347.306 45.103C348.122 45.103 348.83 45.199 349.43 45.391C350.036 45.577 350.537 45.844 350.933 46.192C351.329 46.54 351.623 46.96 351.815 47.452C352.013 47.944 352.112 48.493 352.112 49.099C352.112 49.699 352.007 50.248 351.797 50.746C351.587 51.244 351.278 51.673 350.87 52.033C350.468 52.393 349.967 52.675 349.367 52.879C348.773 53.077 348.086 53.176 347.306 53.176H345.236V58H343.499V45.103H347.306ZM357.882 51.349C358.386 51.349 358.83 51.289 359.214 51.169C359.604 51.043 359.928 50.869 360.186 50.647C360.45 50.419 360.648 50.149 360.78 49.837C360.912 49.525 360.978 49.18 360.978 48.802C360.978 48.034 360.726 47.455 360.222 47.065C359.718 46.675 358.962 46.48 357.954 46.48H356.046V51.349H357.882ZM363.84 58H362.292C361.974 58 361.74 57.877 361.59 57.631L358.242 53.023C358.14 52.879 358.029 52.777 357.909 52.717C357.795 52.651 357.615 52.618 357.369 52.618H356.046V58H354.309V45.103H357.954C358.77 45.103 359.475 45.187 360.069 45.355C360.663 45.517 361.152 45.754 361.536 46.066C361.926 46.378 362.214 46.756 362.4 47.2C362.586 47.638 362.679 48.13 362.679 48.676C362.679 49.132 362.607 49.558 362.463 49.954C362.319 50.35 362.109 50.707 361.833 51.025C361.563 51.337 361.23 51.604 360.834 51.826C360.444 52.048 360 52.216 359.502 52.33C359.724 52.456 359.916 52.639 360.078 52.879L363.84 58ZM377.387 51.556C377.387 52.522 377.234 53.41 376.928 54.22C376.622 55.024 376.19 55.717 375.632 56.299C375.074 56.881 374.402 57.334 373.616 57.658C372.836 57.976 371.972 58.135 371.024 58.135C370.076 58.135 369.212 57.976 368.432 57.658C367.652 57.334 366.983 56.881 366.425 56.299C365.867 55.717 365.435 55.024 365.129 54.22C364.823 53.41 364.67 52.522 364.67 51.556C364.67 50.59 364.823 49.705 365.129 48.901C365.435 48.091 365.867 47.395 366.425 46.813C366.983 46.225 367.652 45.769 368.432 45.445C369.212 45.121 370.076 44.959 371.024 44.959C371.972 44.959 372.836 45.121 373.616 45.445C374.402 45.769 375.074 46.225 375.632 46.813C376.19 47.395 376.622 48.091 376.928 48.901C377.234 49.705 377.387 50.59 377.387 51.556ZM375.596 51.556C375.596 50.764 375.488 50.053 375.272 49.423C375.056 48.793 374.75 48.262 374.354 47.83C373.958 47.392 373.478 47.056 372.914 46.822C372.35 46.588 371.72 46.471 371.024 46.471C370.334 46.471 369.707 46.588 369.143 46.822C368.579 47.056 368.096 47.392 367.694 47.83C367.298 48.262 366.992 48.793 366.776 49.423C366.56 50.053 366.452 50.764 366.452 51.556C366.452 52.348 366.56 53.059 366.776 53.689C366.992 54.313 367.298 54.844 367.694 55.282C368.096 55.714 368.579 56.047 369.143 56.281C369.707 56.509 370.334 56.623 371.024 56.623C371.72 56.623 372.35 56.509 372.914 56.281C373.478 56.047 373.958 55.714 374.354 55.282C374.75 54.844 375.056 54.313 375.272 53.689C375.488 53.059 375.596 52.348 375.596 51.556ZM393.304 45.103V58H391.774V48.523C391.774 48.397 391.777 48.262 391.783 48.118C391.795 47.974 391.807 47.827 391.819 47.677L387.391 55.741C387.253 56.011 387.043 56.146 386.761 56.146H386.509C386.227 56.146 386.017 56.011 385.879 55.741L381.361 47.641C381.397 47.959 381.415 48.253 381.415 48.523V58H379.885V45.103H381.172C381.328 45.103 381.448 45.118 381.532 45.148C381.616 45.178 381.697 45.262 381.775 45.4L386.23 53.338C386.302 53.482 386.371 53.632 386.437 53.788C386.509 53.944 386.575 54.103 386.635 54.265C386.695 54.103 386.758 53.944 386.824 53.788C386.89 53.626 386.962 53.473 387.04 53.329L391.414 45.4C391.486 45.262 391.564 45.178 391.648 45.148C391.738 45.118 391.861 45.103 392.017 45.103H393.304ZM408.518 51.556C408.518 52.522 408.365 53.41 408.059 54.22C407.753 55.024 407.321 55.717 406.763 56.299C406.205 56.881 405.533 57.334 404.747 57.658C403.967 57.976 403.103 58.135 402.155 58.135C401.207 58.135 400.343 57.976 399.563 57.658C398.783 57.334 398.114 56.881 397.556 56.299C396.998 55.717 396.566 55.024 396.26 54.22C395.954 53.41 395.801 52.522 395.801 51.556C395.801 50.59 395.954 49.705 396.26 48.901C396.566 48.091 396.998 47.395 397.556 46.813C398.114 46.225 398.783 45.769 399.563 45.445C400.343 45.121 401.207 44.959 402.155 44.959C403.103 44.959 403.967 45.121 404.747 45.445C405.533 45.769 406.205 46.225 406.763 46.813C407.321 47.395 407.753 48.091 408.059 48.901C408.365 49.705 408.518 50.59 408.518 51.556ZM406.727 51.556C406.727 50.764 406.619 50.053 406.403 49.423C406.187 48.793 405.881 48.262 405.485 47.83C405.089 47.392 404.609 47.056 404.045 46.822C403.481 46.588 402.851 46.471 402.155 46.471C401.465 46.471 400.838 46.588 400.274 46.822C399.71 47.056 399.227 47.392 398.825 47.83C398.429 48.262 398.123 48.793 397.907 49.423C397.691 50.053 397.583 50.764 397.583 51.556C397.583 52.348 397.691 53.059 397.907 53.689C398.123 54.313 398.429 54.844 398.825 55.282C399.227 55.714 399.71 56.047 400.274 56.281C400.838 56.509 401.465 56.623 402.155 56.623C402.851 56.623 403.481 56.509 404.045 56.281C404.609 56.047 405.089 55.714 405.485 55.282C405.881 54.844 406.187 54.313 406.403 53.689C406.619 53.059 406.727 52.348 406.727 51.556ZM419.157 46.57H414.981V58H413.244V46.57H409.059V45.103H419.157V46.57ZM422.817 58H421.071V45.103H422.817V58ZM438.032 51.556C438.032 52.522 437.879 53.41 437.573 54.22C437.267 55.024 436.835 55.717 436.277 56.299C435.719 56.881 435.047 57.334 434.261 57.658C433.481 57.976 432.617 58.135 431.669 58.135C430.721 58.135 429.857 57.976 429.077 57.658C428.297 57.334 427.628 56.881 427.07 56.299C426.512 55.717 426.08 55.024 425.774 54.22C425.468 53.41 425.315 52.522 425.315 51.556C425.315 50.59 425.468 49.705 425.774 48.901C426.08 48.091 426.512 47.395 427.07 46.813C427.628 46.225 428.297 45.769 429.077 45.445C429.857 45.121 430.721 44.959 431.669 44.959C432.617 44.959 433.481 45.121 434.261 45.445C435.047 45.769 435.719 46.225 436.277 46.813C436.835 47.395 437.267 48.091 437.573 48.901C437.879 49.705 438.032 50.59 438.032 51.556ZM436.241 51.556C436.241 50.764 436.133 50.053 435.917 49.423C435.701 48.793 435.395 48.262 434.999 47.83C434.603 47.392 434.123 47.056 433.559 46.822C432.995 46.588 432.365 46.471 431.669 46.471C430.979 46.471 430.352 46.588 429.788 46.822C429.224 47.056 428.741 47.392 428.339 47.83C427.943 48.262 427.637 48.793 427.421 49.423C427.205 50.053 427.097 50.764 427.097 51.556C427.097 52.348 427.205 53.059 427.421 53.689C427.637 54.313 427.943 54.844 428.339 55.282C428.741 55.714 429.224 56.047 429.788 56.281C430.352 56.509 430.979 56.623 431.669 56.623C432.365 56.623 432.995 56.509 433.559 56.281C434.123 56.047 434.603 55.714 434.999 55.282C435.395 54.844 435.701 54.313 435.917 53.689C436.133 53.059 436.241 52.348 436.241 51.556ZM450.979 45.103V58H450.106C449.968 58 449.851 57.976 449.755 57.928C449.665 57.88 449.575 57.799 449.485 57.685L442.024 47.965C442.036 48.115 442.045 48.262 442.051 48.406C442.057 48.55 442.06 48.685 442.06 48.811V58H440.53V45.103H441.43C441.508 45.103 441.574 45.109 441.628 45.121C441.682 45.127 441.73 45.142 441.772 45.166C441.814 45.184 441.856 45.214 441.898 45.256C441.94 45.292 441.985 45.34 442.033 45.4L449.494 55.111C449.482 54.955 449.47 54.805 449.458 54.661C449.452 54.511 449.449 54.37 449.449 54.238V45.103H450.979Z" fill="#222224"/>
</svg>
